<?xml version="1.0" encoding="UTF-8"?>
<svg width="14px" height="19px" viewBox="0 0 14 19" version="1.1" xmlns="http://www.w3.org/2000/svg" xmlns:xlink="http://www.w3.org/1999/xlink">
    <!-- Generator: Sketch 45.2 (43514) - http://www.bohemiancoding.com/sketch -->
    <title>noun_667108_cc</title>
    <desc>Created with Sketch.</desc>
    <defs></defs>
    <g id="Page-1" stroke="none" stroke-width="1" fill="none" fill-rule="evenodd">
        <g id="Create-NEwGroup" transform="translate(-290.000000, -137.000000)" fill-rule="nonzero" fill="#8298A4">
            <g id="Group-7" transform="translate(33.000000, 117.000000)">
                <g id="noun_667108_cc" transform="translate(257.000000, 20.000000)">
                    <g id="Group">
                        <path d="M12.5769923,0 L1.22015597,0 C0.563148907,0 0.0469290756,0.516219831 0.0469290756,1.17322689 L0.0469290756,17.363758 C0.0469290756,18.020765 0.563148907,18.5369849 1.22015597,18.5369849 L12.5769923,18.5369849 C13.2339993,18.5369849 13.7502191,18.020765 13.7502191,17.363758 L13.7502191,1.17322689 C13.7502191,0.516219831 13.2105348,0 12.5769923,0 Z M13.046283,17.363758 C13.046283,17.6218679 12.8351022,17.8330487 12.5769923,17.8330487 L1.22015597,17.8330487 C0.962046049,17.8330487 0.750865209,17.6218679 0.750865209,17.363758 L0.750865209,1.17322689 C0.750865209,0.915116974 0.962046049,0.703936134 1.22015597,0.703936134 L12.5769923,0.703936134 C12.8351022,0.703936134 13.046283,0.915116974 13.046283,1.17322689 L13.046283,17.363758 Z" id="Shape"></path>
                        <path d="M6.89857411,3.14424806 C4.76330117,3.14424806 3.05038991,4.88062386 3.05038991,6.99243226 C3.05038991,9.10424066 4.78676571,10.8406165 6.89857411,10.8406165 C9.01038251,10.8406165 10.7467583,9.10424066 10.7467583,6.99243226 C10.7467583,4.88062386 9.03384705,3.14424806 6.89857411,3.14424806 Z M6.89857411,3.75432605 C7.32093579,3.75432605 7.90754924,4.88062386 7.95447831,6.68739327 L5.81920537,6.68739327 C5.88959899,4.88062386 6.47621243,3.75432605 6.89857411,3.75432605 Z M5.86613445,3.91857781 C5.49070184,4.59904941 5.279521,5.65495361 5.23259193,6.68739327 L3.68393243,6.68739327 C3.77779058,5.39684369 4.66944302,4.31747495 5.86613445,3.91857781 Z M3.6604679,7.29747125 L5.20912739,7.29747125 C5.25605647,8.32991092 5.46723731,9.38581512 5.84266991,10.0662867 C4.66944302,9.66738957 3.77779058,8.58802083 3.6604679,7.29747125 Z M6.89857411,10.2305385 C6.47621243,10.2305385 5.88959899,9.10424066 5.84266991,7.29747125 L7.97794285,7.29747125 C7.90754924,9.10424066 7.32093579,10.2305385 6.89857411,10.2305385 Z M7.93101377,10.0662867 C8.30644638,9.38581512 8.51762722,8.32991092 8.56455629,7.29747125 L10.1132158,7.29747125 C10.0193576,8.58802083 9.1277052,9.66738957 7.93101377,10.0662867 Z M8.56455629,6.68739327 C8.51762722,5.65495361 8.30644638,4.59904941 7.93101377,3.91857781 C9.1277052,4.31747495 9.9958931,5.39684369 10.1132158,6.68739327 L8.56455629,6.68739327 Z" id="Shape"></path>
                        <path d="M10.2305385,12.9758894 L3.56660974,12.9758894 C3.40235798,12.9758894 3.28503529,13.1166766 3.28503529,13.2574639 C3.28503529,13.3982511 3.42582252,13.5390383 3.56660974,13.5390383 L10.2305385,13.5390383 C10.3947902,13.5390383 10.5121129,13.3982511 10.5121129,13.2574639 C10.5121129,13.1166766 10.3947902,12.9758894 10.2305385,12.9758894 Z" id="Shape"></path>
                        <path d="M9.05731159,14.618407 L4.73983663,14.618407 C4.57558487,14.618407 4.45826218,14.7591943 4.45826218,14.8999815 C4.45826218,15.0407687 4.59904941,15.181556 4.73983663,15.181556 L9.05731159,15.181556 C9.22156335,15.181556 9.33888604,15.0407687 9.33888604,14.8999815 C9.33888604,14.7591943 9.22156335,14.618407 9.05731159,14.618407 Z" id="Shape"></path>
                    </g>
                </g>
            </g>
        </g>
    </g>
</svg>