<?xml version="1.0" encoding="UTF-8"?>
<svg width="14px" height="18px" viewBox="0 0 14 18" version="1.1" xmlns="http://www.w3.org/2000/svg" xmlns:xlink="http://www.w3.org/1999/xlink">
    <!-- Generator: Sketch 45.2 (43514) - http://www.bohemiancoding.com/sketch -->
    <title>noun_667108_cc</title>
    <desc>Created with Sketch.</desc>
    <defs></defs>
    <g id="Page-1" stroke="none" stroke-width="1" fill="none" fill-rule="evenodd">
        <g id="Create-NEwGroup" transform="translate(-427.000000, -138.000000)" fill-rule="nonzero" fill="#8298A4">
            <g id="Group-7" transform="translate(33.000000, 117.000000)">
                <g id="noun_667108_cc" transform="translate(394.000000, 21.000000)">
                    <g id="Group">
                        <path d="M12.1005254,0 L1.17393157,0 C0.54181457,0 0.0451512142,0.496663356 0.0451512142,1.12878035 L0.0451512142,16.7059492 C0.0451512142,17.3380662 0.54181457,17.8347296 1.17393157,17.8347296 L12.1005254,17.8347296 C12.7326424,17.8347296 13.2293058,17.3380662 13.2293058,16.7059492 L13.2293058,1.12878035 C13.2293058,0.496663356 12.7100668,0 12.1005254,0 Z M12.5520375,16.7059492 C12.5520375,16.9542809 12.3488571,17.1574614 12.1005254,17.1574614 L1.17393157,17.1574614 C0.925599891,17.1574614 0.722419427,16.9542809 0.722419427,16.7059492 L0.722419427,1.12878035 C0.722419427,0.880448677 0.925599891,0.677268213 1.17393157,0.677268213 L12.1005254,0.677268213 C12.3488571,0.677268213 12.5520375,0.880448677 12.5520375,1.12878035 L12.5520375,16.7059492 Z" id="Shape"></path>
                        <path d="M9.84296469,12.4843107 L3.43149228,12.4843107 C3.27346303,12.4843107 3.16058499,12.6197644 3.16058499,12.755218 C3.16058499,12.8906716 3.29603864,13.0261253 3.43149228,13.0261253 L9.84296469,13.0261253 C10.0009939,13.0261253 10.113872,12.8906716 10.113872,12.755218 C10.113872,12.6197644 10.0009939,12.4843107 9.84296469,12.4843107 Z" id="Shape"></path>
                        <path d="M8.71418434,14.0646032 L4.56027263,14.0646032 C4.40224338,14.0646032 4.28936535,14.2000569 4.28936535,14.3355105 C4.28936535,14.4709641 4.42481899,14.6064178 4.56027263,14.6064178 L8.71418434,14.6064178 C8.87221359,14.6064178 8.98509162,14.4709641 8.98509162,14.3355105 C8.98509162,14.2000569 8.87221359,14.0646032 8.71418434,14.0646032 Z" id="Shape"></path>
                        <path d="M9.84296469,3.76205545 L3.43149228,3.76205545 C3.27346303,3.76205545 3.16058499,3.89750909 3.16058499,4.03296273 C3.16058499,4.16841638 3.29603864,4.30387002 3.43149228,4.30387002 L9.84296469,4.30387002 C10.0009939,4.30387002 10.113872,4.16841638 10.113872,4.03296273 C10.113872,3.89750909 10.0009939,3.76205545 9.84296469,3.76205545 Z" id="Shape"></path>
                        <path d="M8.71418434,5.34234795 L4.56027263,5.34234795 C4.40224338,5.34234795 4.28936535,5.47780159 4.28936535,5.61325523 C4.28936535,5.74870887 4.42481899,5.88416252 4.56027263,5.88416252 L8.71418434,5.88416252 C8.87221359,5.88416252 8.98509162,5.74870887 8.98509162,5.61325523 C8.98509162,5.47780159 8.87221359,5.34234795 8.71418434,5.34234795 Z" id="Shape"></path>
                        <path d="M9.84296469,8.45865444 L3.43149228,8.45865444 C3.27346303,8.45865444 3.16058499,8.59410808 3.16058499,8.72956173 C3.16058499,8.86501537 3.29603864,9.00046901 3.43149228,9.00046901 L9.84296469,9.00046901 C10.0009939,9.00046901 10.113872,8.86501537 10.113872,8.72956173 C10.113872,8.59410808 10.0009939,8.45865444 9.84296469,8.45865444 Z" id="Shape"></path>
                        <path d="M8.71418434,10.0389469 L4.56027263,10.0389469 C4.40224338,10.0389469 4.28936535,10.1744006 4.28936535,10.3098542 C4.28936535,10.4453079 4.42481899,10.5807615 4.56027263,10.5807615 L8.71418434,10.5807615 C8.87221359,10.5807615 8.98509162,10.4453079 8.98509162,10.3098542 C8.98509162,10.1744006 8.87221359,10.0389469 8.71418434,10.0389469 Z" id="Shape"></path>
                    </g>
                </g>
            </g>
        </g>
    </g>
</svg>