<?xml version="1.0" encoding="UTF-8"?>
<svg width="16px" height="16px" viewBox="0 0 16 16" version="1.1" xmlns="http://www.w3.org/2000/svg" xmlns:xlink="http://www.w3.org/1999/xlink">
    <!-- Generator: Sketch 45.2 (43514) - http://www.bohemiancoding.com/sketch -->
    <title>noun_169682</title>
    <desc>Created with Sketch.</desc>
    <defs></defs>
    <g id="Page-1" stroke="none" stroke-width="1" fill="none" fill-rule="evenodd">
        <g id="Create-NEwGroup" transform="translate(-558.000000, -139.000000)" fill-rule="nonzero" fill="#8298A4">
            <g id="Group-7" transform="translate(33.000000, 117.000000)">
                <g id="noun_169682" transform="translate(525.000000, 22.000000)">
                    <path d="M13.3230059,15.2230304 L1.90573312,15.2230304 C0.8548683,15.2230304 0.0028543182,14.3710164 0.0028543182,13.3201516 L0.0028543182,1.9028788 C0.0028543182,0.852013982 0.8548683,0 1.90573312,0 L13.3230059,0 C14.3738707,0 15.2258847,0.852013982 15.2258847,1.9028788 L15.2258847,13.3201516 C15.2258847,14.3710164 14.3738707,15.2230304 13.3230059,15.2230304 Z M8.09008921,10.4658334 L8.09008921,9.99011369 L8.64097262,9.76747687 C8.91689005,9.54579149 9.61381941,8.88882259 9.61381941,8.88882259 L9.6328482,8.79558153 C9.77794271,8.07676906 9.98250218,6.89222701 9.98250218,6.51022409 C9.98250218,4.96889226 9.25227244,4.28100158 7.61389379,4.28100158 C5.97551515,4.28100158 5.24528541,4.96841654 5.24528541,6.51022409 C5.24528541,6.92505167 5.45983499,8.13100111 5.59493939,8.79415437 L5.61396818,8.91070569 C5.76952852,9.06721748 6.2038606,9.48394793 6.59109644,9.75177812 L7.13864981,9.99011369 L7.13864981,10.4658334 C7.13484406,10.4273001 7.13864981,11.4172728 7.13864981,11.4172728 C7.13864981,12.1865115 6.61297955,12.4086726 5.8922642,12.4086726 C5.89178848,12.4086726 5.89131276,12.4086726 5.89083704,12.4086726 C4.2743415,12.4719434 4.02268578,13.0047494 3.96607514,13.066593 C3.91517313,13.1422324 3.85951392,14.1041377 3.80480616,14.271591 L11.4248843,14.271591 C11.371128,14.1046134 11.3178474,13.1474653 11.2598096,13.0608844 C11.2374507,13.0342441 11.0252798,12.480982 9.3745324,12.4096241 C8.6162352,12.4096241 8.09008921,12.1869873 8.09008921,11.4172728 C8.09008921,11.4172728 8.09865217,10.3987569 8.09008921,10.4658334 Z M14.2744453,1.9028788 C14.2744453,1.37768425 13.8482005,0.951439399 13.3230059,0.951439399 L1.90573312,0.951439399 C1.38053857,0.951439399 0.954293718,1.37768425 0.954293718,1.9028788 L0.954293718,13.3201516 C0.954293718,13.8453461 1.38053857,14.271591 1.90573312,14.271591 L2.76440717,14.271591 C2.93043335,13.9652275 3.01796577,12.7740254 3.18827343,12.5180882 C3.18827343,12.5180882 3.4846468,11.5485714 5.81852765,11.457709 C6.0563875,11.457709 6.17531742,11.3088087 6.17531742,11.0804632 C6.17531742,10.8963597 6.17531742,10.7507895 6.17531742,10.7507895 C6.17531742,10.7046447 6.16770591,10.6637328 6.16532731,10.6190151 C5.95791352,10.4539404 5.90891439,10.3911454 5.5492703,10.091442 C5.5492703,10.091442 4.75291552,9.5700532 4.66395594,8.98444225 C4.66395594,8.98444225 4.29527317,7.17670739 4.29527317,6.51069981 C4.29527317,4.86946685 5.02788151,3.3300379 7.61532095,3.3300379 C10.1675571,3.3300379 10.9353687,4.86899113 10.9353687,6.51069981 C10.9353687,7.16053292 10.566686,8.98444225 10.566686,8.98444225 C10.4924737,9.53913142 9.68137161,10.091442 9.68137161,10.091442 C9.35883365,10.3906697 9.2127877,10.5167354 9.02773274,10.6375682 C9.02630558,10.6761015 9.01916979,10.7113048 9.01916979,10.7507895 C9.01916979,10.7507895 9.01916979,10.8968354 9.01916979,11.0804632 C9.01916979,11.308333 9.13809971,11.457709 9.37595956,11.457709 C11.7450437,11.559513 12.0418928,12.5180882 12.0418928,12.5180882 C12.2117247,12.7735497 12.2997328,13.9652275 12.4662347,14.271591 L13.3244331,14.271591 C13.8496276,14.271591 14.2758725,13.8453461 14.2758725,13.3201516 L14.2758725,1.9028788 L14.2744453,1.9028788 Z" id="Shape"></path>
                </g>
            </g>
        </g>
    </g>
</svg>