<?xml version="1.0" encoding="UTF-8"?>
<svg width="14px" height="21px" viewBox="0 0 14 21" version="1.1" xmlns="http://www.w3.org/2000/svg" xmlns:xlink="http://www.w3.org/1999/xlink">
    <!-- Generator: Sketch 45.2 (43514) - http://www.bohemiancoding.com/sketch -->
    <title>noun_1148349_cc</title>
    <desc>Created with Sketch.</desc>
    <defs></defs>
    <g id="Page-1" stroke="none" stroke-width="1" fill="none" fill-rule="evenodd">
        <g id="Create-NEwGroup" transform="translate(-814.000000, -384.000000)" fill-rule="nonzero" fill="#8298A4">
            <g id="Group-7" transform="translate(33.000000, 365.000000)">
                <g id="noun_1148349_cc" transform="translate(781.000000, 19.035934)">
                    <path d="M6.79974674,19.3367798 L2.54990503,19.3367798 C1.61105592,19.3367798 0.849968343,18.5756922 0.849968343,17.6368431 L0.849968343,2.76239711 C0.849968343,1.82354801 1.61105592,1.06246043 2.54990503,1.06246043 L8.49968343,1.06246043 L8.49968343,2.76239711 C8.49968343,4.17067077 9.64131479,5.31230214 11.0495885,5.31230214 L12.7495251,5.31230214 L12.7495251,13.3870014 C12.7495251,13.6217137 12.939797,13.8119856 13.1745093,13.8119856 C13.4092216,13.8119856 13.5994935,13.6217137 13.5994935,13.3870014 L13.5994935,4.88731797 C13.6023338,4.85905688 13.6023338,4.83058223 13.5994935,4.80232114 C13.5949964,4.78426032 13.5893177,4.76651444 13.5824941,4.74919811 C13.5824941,4.74919811 13.5824941,4.73219875 13.5824941,4.72369906 C13.5689127,4.70627285 13.553993,4.68993226 13.5378708,4.67482588 L13.5378708,4.65782652 C13.522285,4.63489528 13.5044925,4.61354432 13.4847478,4.59407889 L9.23490604,0.344237179 C9.21544061,0.324492414 9.19408965,0.306699948 9.17115842,0.291114157 L9.13715968,0.27411479 C9.11950192,0.26285064 9.10103562,0.252907247 9.08191174,0.244365898 L9.05641269,0.244365898 L9.00966443,0.212492086 C8.98140334,0.209651739 8.95292869,0.209651739 8.9246676,0.212492086 L2.54990503,0.212492086 C1.14163137,0.212492086 0,1.35412345 0,2.76239711 L0,17.6368431 C1.50984708e-15,19.0451168 1.14163137,20.1867481 2.54990503,20.1867481 L6.79974674,20.1867481 C7.034459,20.1867481 7.22473088,19.9964762 7.22473088,19.761764 C7.22473088,19.5270517 7.034459,19.3367798 6.79974674,19.3367798 Z M9.34965177,2.76239711 L9.34965177,1.66381303 L12.1481725,4.4623338 L11.0495885,4.4623338 C10.1107393,4.4623338 9.34965177,3.70124622 9.34965177,2.76239711 Z" id="Shape"></path>
                    <path d="M2.54990503,7.437223 L6.79974674,7.437223 C7.03445902,7.437223 7.22473091,7.2469511 7.22473091,7.01223883 L7.22473091,2.76239711 C7.22473091,2.52768484 7.03445902,2.33741294 6.79974674,2.33741294 L2.54990503,2.33741294 C2.31519275,2.33741294 2.12492086,2.52768484 2.12492086,2.76239711 L2.12492086,7.01223883 C2.12492086,7.2469511 2.31519275,7.437223 2.54990503,7.437223 Z M2.9748892,3.18738128 L6.37476257,3.18738128 L6.37476257,6.58725465 L2.9748892,6.58725465 L2.9748892,3.18738128 Z" id="Shape"></path>
                    <path d="M13.7482379,17.8620847 L13.3678771,15.7711626 C13.3477264,15.6600692 13.284197,15.5615605 13.1913091,15.4973762 C13.0984213,15.4331918 12.9838107,15.4086081 12.8727705,15.4290503 L8.69305122,16.189772 C8.58195784,16.2099227 8.48344912,16.2734521 8.41926479,16.36634 C8.35508045,16.4592279 8.33049673,16.5738385 8.35093897,16.6848786 L8.7312998,18.7758007 C8.74998448,18.8876261 8.81257683,18.9873499 8.90515684,19.0527944 C8.99773686,19.1182389 9.11262871,19.1439781 9.22428144,19.1242877 L13.4061257,18.363566 C13.5185513,18.3435016 13.6181706,18.2790339 13.6825296,18.184694 C13.7468886,18.0903541 13.7705707,17.9740818 13.7482379,17.8620847 L13.7482379,17.8620847 Z" id="Shape"></path>
                    <path d="M11.1600843,8.71217551 L2.54990503,8.71217551 C2.31519275,8.71217551 2.12492086,8.90244741 2.12492086,9.13715968 C2.12492086,9.37187196 2.31519275,9.56214385 2.54990503,9.56214385 L11.1600843,9.56214385 C11.3947966,9.56214385 11.5850685,9.37187196 11.5850685,9.13715968 C11.5850685,8.90244741 11.3947966,8.71217551 11.1600843,8.71217551 Z" id="Shape"></path>
                    <path d="M11.1600843,10.8009727 L2.54990503,10.8009727 C2.31519275,10.8009727 2.12492086,10.9912446 2.12492086,11.2259569 C2.12492086,11.4606692 2.31519275,11.6509411 2.54990503,11.6509411 L11.1600843,11.6509411 C11.3947966,11.6509411 11.5850685,11.4606692 11.5850685,11.2259569 C11.5850685,10.9912446 11.3947966,10.8009727 11.1600843,10.8009727 Z" id="Shape"></path>
                </g>
            </g>
        </g>
    </g>
</svg>