<?xml version="1.0" encoding="UTF-8"?>
<svg width="21px" height="12px" viewBox="0 0 21 12" version="1.1" xmlns="http://www.w3.org/2000/svg" xmlns:xlink="http://www.w3.org/1999/xlink">
    <!-- Generator: Sketch 45.2 (43514) - http://www.bohemiancoding.com/sketch -->
    <title>noun_971047_cc</title>
    <desc>Created with Sketch.</desc>
    <defs></defs>
    <g id="Page-1" stroke="none" stroke-width="1" fill="none" fill-rule="evenodd">
        <g id="Create-NEwGroup" transform="translate(-1279.000000, -451.000000)" fill-rule="nonzero" fill="#8298A4">
            <g id="Group-7" transform="translate(33.000000, 427.000000)">
                <g id="noun_971047_cc" transform="translate(1256.500000, 30.500000) rotate(46.000000) translate(-1256.500000, -30.500000) translate(1246.000000, 20.000000)">
                    <g id="Group">
                        <path d="M18.8120072,5.37810099 C18.5396983,5.10579207 18.131235,5.03771485 17.7681564,5.19656171 C17.0646917,5.55964026 16.1796878,5.40079339 15.6123775,4.83348316 C15.0450673,4.26617293 14.8862204,3.40386138 15.249299,2.67770429 C15.4081459,2.31462574 15.3400686,1.90616237 15.0677597,1.63385346 L14.1146785,0.680772277 C13.4792911,0.0453848184 12.5035175,0.0453848184 11.86813,0.680772277 L0.658079867,11.8908224 C0.0226924092,12.5262099 0.0226924092,13.5019835 0.658079867,14.1373709 L1.40692937,14.8862204 C1.70193069,15.1812218 2.15577888,15.2266066 2.49616501,15.0223749 C3.24501452,14.5685267 4.1754033,14.6819888 4.81079076,15.3173762 C5.4234858,15.9300713 5.55964026,16.8831525 5.10579207,17.632002 C4.87886798,17.9950805 4.94694521,18.4262363 5.24194653,18.7212376 L6.30848976,19.7877808 C6.94387722,20.4231683 7.91965082,20.4231683 8.55503828,19.7877808 L19.742396,8.55503828 C20.3777835,7.91965082 20.3777835,6.94387722 19.742396,6.30848976 C19.742396,6.30848976 18.8120072,5.37810099 18.8120072,5.37810099 Z M19.1070086,7.91965082 L16.4746891,10.5519703 L15.7939168,9.87119801 L15.1585294,10.5065855 L15.8393016,11.1873577 L7.89695841,19.129701 C7.6246495,19.4020099 7.21618613,19.4020099 6.94387722,19.129701 L5.9000264,18.0858502 C6.55810627,16.9739221 6.37656699,15.5896851 5.46887062,14.6592964 C4.56117425,13.7289076 3.15424488,13.5700607 2.06500924,14.250833 L1.31615973,13.5019835 C1.04385082,13.2296746 1.04385082,12.8212112 1.31615973,12.5489023 L9.25850296,4.60655907 L9.93927524,5.28733135 L10.5746627,4.65194389 L9.89389042,3.97117161 L12.5035175,1.31615973 C12.7758264,1.04385082 13.1842898,1.04385082 13.4565987,1.31615973 L14.4096799,2.26924092 C13.8877544,3.33578416 14.1146785,4.62925148 14.9542977,5.46887062 C15.7939168,6.30848976 17.0873841,6.53541386 18.1539274,6.01348844 L19.0843162,6.94387722 C19.3793175,7.21618613 19.3793175,7.64734191 19.1070086,7.91965082 Z" id="Shape"></path>
                        <rect id="Rectangle-path" transform="translate(11.356887, 6.003174) rotate(-45.000000) translate(-11.356887, -6.003174) " x="10.856887" y="5.36779226" width="1" height="1.27076273"></rect>
                        <rect id="Rectangle-path" transform="translate(12.901051, 7.543580) rotate(-45.000000) translate(-12.901051, -7.543580) " x="12.401051" y="6.90819839" width="1" height="1.27076273"></rect>
                        <rect id="Rectangle-path" transform="translate(14.445215, 9.083986) rotate(-45.000000) translate(-14.445215, -9.083986) " x="13.945215" y="8.44860451" width="1" height="1.27076273"></rect>
                        <path d="M11.7773604,11.86813 L8.55503828,8.66850032 C8.373499,8.48696105 8.07849768,8.48696105 7.91965082,8.66850032 C7.76080395,8.8500396 7.73811154,9.14504092 7.91965082,9.30388778 L11.1192805,12.5035175 C11.3008198,12.6850568 11.5958211,12.6850568 11.754668,12.5035175 C11.9588997,12.3446706 11.9588997,12.0496693 11.7773604,11.86813 Z" id="Shape"></path>
                        <path d="M10.1435069,13.5019835 L6.94387722,10.2796614 C6.76233795,10.0981221 6.46733663,10.0981221 6.30848976,10.2796614 C6.1496429,10.4612007 6.12695049,10.756202 6.30848976,10.9150488 L9.50811946,14.1146785 C9.68965874,14.2962178 9.98466006,14.2962178 10.1435069,14.1146785 C10.3023538,13.9331393 10.3250462,13.6835228 10.1435069,13.5019835 Z" id="Shape"></path>
                    </g>
                </g>
            </g>
        </g>
    </g>
</svg>