<?xml version="1.0" encoding="UTF-8"?>
<svg width="44px" height="27px" viewBox="0 0 44 27" version="1.1" xmlns="http://www.w3.org/2000/svg" xmlns:xlink="http://www.w3.org/1999/xlink">
    <!-- Generator: Sketch 42 (36781) - http://www.bohemiancoding.com/sketch -->
    <title>Group 8</title>
    <desc>Created with Sketch.</desc>
    <defs></defs>
    <g id="Page-1" stroke="none" stroke-width="1" fill="none" fill-rule="evenodd">
        <g id="Create-NEwGroup" transform="translate(-1019.000000, -91.000000)" fill-rule="nonzero" fill="#90A4AE">
            <g id="Group-8" transform="translate(1019.000000, 91.000000)">
                <g id="noun_856030_cc" transform="translate(7.897436, 0.000000)">
                    <g id="usr">
                        <path d="M13.4471089,13.22158 C17.1024049,13.22158 20.0656078,10.2618285 20.0656078,6.61079 C20.0656078,2.9597515 17.1024049,2.23561631e-16 13.4471089,0 C9.79181288,-2.23561631e-16 6.82860999,2.9597515 6.82860999,6.61079 C6.83352903,10.2597914 9.79385236,13.2166667 13.4471089,13.22158 L13.4471089,13.22158 Z M13.4471089,1.96907102 C16.0129319,1.96907109 18.0929966,4.04655652 18.0931899,6.60939097 C18.0933833,9.17222543 16.0136321,11.250024 13.4478091,11.2504103 C10.8819861,11.2507966 8.80160789,9.1736244 8.80102772,6.61079 C8.8047905,4.04963224 10.8829634,1.97458393 13.4471089,1.97169435 L13.4471089,1.96907102 Z" id="Shape"></path>
                        <path d="M2.95416174,26.8628927 C2.95416174,21.0836981 7.66117513,16.3821672 13.4471089,16.3821672 C19.2330427,16.3821672 23.9400561,21.0836981 23.9400561,26.8628927 L25.9140496,26.8628927 C25.9138489,21.826513 22.8763787,17.2861367 18.2179334,15.3588247 C13.5594882,13.4315128 8.19741007,14.496792 4.63189868,18.05795 C2.28617797,20.3879931 0.971228476,23.5585598 0.980168172,26.8628927 L2.95416174,26.8628927 Z" id="Shape"></path>
                    </g>
                </g>
                <g id="noun_856030_cc" transform="translate(0.000000, 1.125000)">
                    <g id="usr">
                        <path d="M11.1084813,11.0179833 C14.1280736,11.0179833 16.5759369,8.55152376 16.5759369,5.50899167 C16.5759369,2.46645958 14.1280736,1.86301359e-16 11.1084813,0 C8.0888889,-1.86301359e-16 5.64102564,2.46645958 5.64102564,5.50899167 C5.6450892,8.54982617 8.09057369,11.0138889 11.1084813,11.0179833 L11.1084813,11.0179833 Z M11.1084813,1.64089252 C13.2280742,1.64089257 14.9463885,3.37213043 14.9465482,5.50782581 C14.9467079,7.64352119 13.2286526,9.37501996 11.1090597,9.37534189 C8.9894668,9.37566382 7.27089348,7.644687 7.2704142,5.50899167 C7.27352259,3.37469354 8.99027413,1.64548661 11.1084813,1.64307863 L11.1084813,1.64089252 Z" id="Shape"></path>
                        <path d="M17.960173,14.6382822 C17.1140269,13.8783367 16.1350825,13.2520517 15.0495972,12.7990206 C11.2013163,11.1929273 6.77177354,12.08066 3.82635108,15.0482917 C1.8885818,16.9899943 0.802319176,19.6321331 0.809704142,22.3857439 L2.44039448,22.3857439 C2.44039448,17.5697484 6.32879684,13.651806 11.1084813,13.651806 C13.1881615,13.651806 15.0991049,14.3935478 16.5944257,15.6282699 L17.960173,14.6382822 Z" id="Combined-Shape"></path>
                    </g>
                </g>
                <g id="noun_856030_cc" transform="translate(35.000000, 12.625000) scale(-1, 1) translate(-35.000000, -12.625000) translate(26.000000, 1.125000)">
                    <g id="usr">
                        <path d="M11.1084813,11.0179833 C14.1280736,11.0179833 16.5759369,8.55152376 16.5759369,5.50899167 C16.5759369,2.46645958 14.1280736,1.86301359e-16 11.1084813,0 C8.0888889,-1.86301359e-16 5.64102564,2.46645958 5.64102564,5.50899167 C5.6450892,8.54982617 8.09057369,11.0138889 11.1084813,11.0179833 L11.1084813,11.0179833 Z M11.1084813,1.64089252 C13.2280742,1.64089257 14.9463885,3.37213043 14.9465482,5.50782581 C14.9467079,7.64352119 13.2286526,9.37501996 11.1090597,9.37534189 C8.9894668,9.37566382 7.27089348,7.644687 7.2704142,5.50899167 C7.27352259,3.37469354 8.99027413,1.64548661 11.1084813,1.64307863 L11.1084813,1.64089252 Z" id="Shape"></path>
                        <path d="M17.960173,14.6382822 C17.1140269,13.8783367 16.1350825,13.2520517 15.0495972,12.7990206 C11.2013163,11.1929273 6.77177354,12.08066 3.82635108,15.0482917 C1.8885818,16.9899943 0.802319176,19.6321331 0.809704142,22.3857439 L2.44039448,22.3857439 C2.44039448,17.5697484 6.32879684,13.651806 11.1084813,13.651806 C13.1881615,13.651806 15.0991049,14.3935478 16.5944257,15.6282699 L17.960173,14.6382822 Z" id="Combined-Shape"></path>
                    </g>
                </g>
            </g>
        </g>
    </g>
</svg>