<?xml version="1.0" encoding="UTF-8"?>
<svg width="22px" height="25px" viewBox="0 0 22 25" version="1.1" xmlns="http://www.w3.org/2000/svg" xmlns:xlink="http://www.w3.org/1999/xlink">
    <!-- Generator: Sketch 42 (36781) - http://www.bohemiancoding.com/sketch -->
    <title>Group 8</title>
    <desc>Created with Sketch.</desc>
    <defs></defs>
    <g id="Page-1" stroke="none" stroke-width="1" fill="none" fill-rule="evenodd">
        <g id="Dashboard-Select" transform="translate(-67.000000, -274.000000)" fill-rule="nonzero" fill="#90A4AE">
            <g id="Group-8" transform="translate(67.000000, 274.000000)">
                <g id="noun_930851_cc">
                    <g id="Asset-29">
                        <g id="Group">
                            <path d="M0.488888889,7.84313725 C0.218883011,7.84313725 3.30661834e-17,7.623669 0,7.35294118 L0,5.88235294 C0.00269133047,4.28617791 1.29252588,2.9928946 2.88444444,2.99019608 L3.42222222,2.99019608 C3.6922281,2.99019608 3.91111111,3.20966434 3.91111111,3.48039216 C3.91111111,3.75111998 3.6922281,3.97058824 3.42222222,3.97058824 L2.88444444,3.97058824 C1.83142152,3.97058824 0.977777778,4.82651445 0.977777778,5.88235294 L0.977777778,7.35294118 C0.977777778,7.623669 0.758894767,7.84313725 0.488888889,7.84313725 Z" id="Shape"></path>
                            <path d="M19.0666667,25 L2.88444444,25 C1.29252588,24.9973015 0.00269133047,23.7040182 0,22.1078431 L0,9 C-3.30661834e-17,8.72927218 0.218883011,8.50980392 0.488888889,8.50980392 C0.758894767,8.50980392 0.977777778,8.72927218 0.977777778,9 L0.977777778,22.1078431 C0.977777778,23.1636816 1.83142152,24.0196078 2.88444444,24.0196078 L19.0666667,24.0196078 C20.1196896,24.0196078 20.9733333,23.1636816 20.9733333,22.1078431 L20.9733333,5.88235294 C20.965277,4.83226196 20.1139884,3.98526305 19.0666667,3.98529412 L15.4586667,3.98529412 C15.1886608,3.98529412 14.9697778,3.76582586 14.9697778,3.49509804 C14.9697778,3.22437022 15.1886608,3.00490196 15.4586667,3.00490196 L19.0666667,3.00490196 C20.6585852,3.00760049 21.9484198,4.3008838 21.9511111,5.89705882 L21.9511111,22.1078431 C21.9484198,23.7040182 20.6585852,24.9973015 19.0666667,25 Z" id="Shape"></path>
                            <path d="M6.47777778,3.98529412 L4.67866667,3.98529412 C4.40866079,3.98529412 4.18977778,3.76582586 4.18977778,3.49509804 C4.18977778,3.22437022 4.40866079,3.00490196 4.67866667,3.00490196 L6.47777778,3.00490196 C6.74778366,3.00490196 6.96666667,3.22437022 6.96666667,3.49509804 C6.96666667,3.76582586 6.74778366,3.98529412 6.47777778,3.98529412 Z" id="Shape"></path>
                            <path d="M9.25955556,6.98529412 L6.47777778,6.98529412 C6.2077719,6.98529412 5.98888889,6.76582586 5.98888889,6.49509804 L5.98888889,0.490196078 C5.98888889,0.21946826 6.2077719,4.97318935e-17 6.47777778,0 L9.25955556,0 C9.52956143,1.65772978e-17 9.74844444,0.21946826 9.74844444,0.490196078 L9.74844444,6.49509804 C9.74844444,6.76582586 9.52956143,6.98529412 9.25955556,6.98529412 Z M6.96666667,6.00490196 L8.77066667,6.00490196 L8.77066667,0.980392157 L6.96666667,0.980392157 L6.96666667,6.00490196 Z" id="Shape"></path>
                            <path d="M15.4586667,6.98529412 L12.6817778,6.98529412 C12.4117719,6.98529412 12.1928889,6.76582586 12.1928889,6.49509804 L12.1928889,0.490196078 C12.1928889,0.21946826 12.4117719,4.97318935e-17 12.6817778,0 L15.4635556,0 C15.7335614,1.65772978e-17 15.9524444,0.21946826 15.9524444,0.490196078 L15.9524444,6.49509804 C15.952451,6.62595992 15.9002726,6.75139188 15.8075281,6.84346369 C15.7147835,6.93553551 15.5891731,6.98660274 15.4586667,6.98529412 Z M13.1657778,6.00490196 L14.9697778,6.00490196 L14.9697778,0.980392157 L13.1706667,0.980392157 L13.1657778,6.00490196 Z" id="Shape"></path>
                            <path d="M21.4475556,11.2745098 L0.488888889,11.2745098 C0.218883011,11.2745098 3.30661834e-17,11.0550415 0,10.7843137 C-3.30661834e-17,10.5135859 0.218883011,10.2941176 0.488888889,10.2941176 L21.4475556,10.2941176 C21.7175614,10.2941176 21.9364444,10.5135859 21.9364444,10.7843137 C21.9364444,11.0550415 21.7175614,11.2745098 21.4475556,11.2745098 Z" id="Shape"></path>
                            <path d="M12.6817778,3.98529412 L9.25955556,3.98529412 C8.98954968,3.98529412 8.77066667,3.76582586 8.77066667,3.49509804 C8.77066667,3.22437022 8.98954968,3.00490196 9.25955556,3.00490196 L12.6817778,3.00490196 C12.9517837,3.00490196 13.1706667,3.22437022 13.1706667,3.49509804 C13.1706667,3.76582586 12.9517837,3.98529412 12.6817778,3.98529412 Z" id="Shape"></path>
                        </g>
                    </g>
                </g>
            </g>
        </g>
    </g>
</svg>