<?xml version="1.0" encoding="UTF-8"?>
<svg width="16px" height="17px" viewBox="0 0 16 17" version="1.1" xmlns="http://www.w3.org/2000/svg" xmlns:xlink="http://www.w3.org/1999/xlink">
    <!-- Generator: Sketch 42 (36781) - http://www.bohemiancoding.com/sketch -->
    <title>noun_873907_cc</title>
    <desc>Created with Sketch.</desc>
    <defs></defs>
    <g id="Page-1" stroke="none" stroke-width="1" fill="none" fill-rule="evenodd">
        <g id="Create-NEwGroup" transform="translate(-245.000000, -400.000000)" fill-rule="nonzero" fill="#FFFFFF">
            <g id="Group-7" transform="translate(52.000000, 234.000000)">
                <g id="noun_873907_cc" transform="translate(193.000000, 166.000000)">
                    <g id="Group">
                        <g transform="translate(0.000000, 0.112734)" id="Shape">
                            <path d="M8,0.0640148015 C3.5880384,0.0640148015 0,3.63127841 0,8.017701 C0,12.4041059 3.58803751,15.9713872 8,15.9713872 C12.4119625,15.9713872 16,12.4041059 16,8.017701 C16,4.28936287 13.4134247,1.14685792 9.92222222,0.290473922 C9.73663268,0.245060317 9.54077238,0.301542867 9.40843094,0.438641992 C9.2760895,0.575741116 9.22737628,0.772624517 9.28064379,0.955117136 C9.33391131,1.13760976 9.48106552,1.27798173 9.66666667,1.32334845 C12.6892732,2.06478578 14.9333333,4.77651025 14.9333333,8.017701 C14.9333333,11.830981 11.8354914,14.9108957 8,14.9108957 C4.16450862,14.9108957 1.06666667,11.830981 1.06666667,8.017701 C1.06666667,4.20441043 4.16450773,1.12450629 8,1.12450629 C8.19233916,1.1272107 8.37124339,1.02674208 8.46820678,0.861571825 C8.56517018,0.696401573 8.56517018,0.492119524 8.46820678,0.326949271 C8.37124339,0.161779018 8.19233916,0.0613103947 8,0.0640148015 L8,0.0640148015 Z M4.91666667,4.47720596 C4.71150966,4.49907318 4.53743938,4.63661936 4.46970094,4.83038761 C4.40196251,5.02415586 4.45270733,5.23938664 4.6,5.38304245 L7.24444444,8.017701 L4.6,10.6468362 C4.45129519,10.7778673 4.3881774,10.9802176 4.43621742,11.1719095 C4.48425743,11.3636014 4.63549048,11.5128533 4.82864785,11.5591992 C5.02180521,11.6055452 5.2248625,11.5413011 5.35555556,11.3924942 L11.4,5.38304245 C11.5640769,5.22397901 11.6076196,4.97849309 11.5081651,4.77322591 C11.4087106,4.56795872 11.1884902,4.44879382 10.9611111,4.47720596 C10.8402454,4.49305035 10.7284863,4.54958108 10.6444444,4.63738437 L8,7.26651953 L5.35555556,4.63738437 C5.24184258,4.51969526 5.07995974,4.46061394 4.91666667,4.47720596 Z M9.36111111,8.89592052 C9.1559541,8.91778774 8.98188382,9.05533392 8.91414539,9.24910217 C8.84640695,9.44287041 8.89715177,9.65810119 9.04444444,9.801757 L10.6444444,11.3924942 C10.7751375,11.5413011 10.9781948,11.6055452 11.1713522,11.5591992 C11.3645095,11.5128533 11.5157426,11.3636014 11.5637826,11.1719095 C11.6118226,10.9802176 11.5487048,10.7778673 11.4,10.6468362 L9.8,9.05609892 C9.68628703,8.93840981 9.52440419,8.87932849 9.36111111,8.89592052 L9.36111111,8.89592052 Z"></path>
                        </g>
                    </g>
                </g>
            </g>
        </g>
    </g>
</svg>