<?xml version="1.0" encoding="UTF-8"?>
<svg width="44px" height="44px" viewBox="0 0 44 44" version="1.1" xmlns="http://www.w3.org/2000/svg" xmlns:xlink="http://www.w3.org/1999/xlink">
    <!-- Generator: Sketch 42 (36781) - http://www.bohemiancoding.com/sketch -->
    <title>Group 9</title>
    <desc>Created with Sketch.</desc>
    <defs></defs>
    <g id="Page-1" stroke="none" stroke-width="1" fill="none" fill-rule="evenodd">
        <g id="Dashboard-Select" transform="translate(-574.000000, -107.000000)">
            <g id="Group-9" transform="translate(574.000000, 107.000000)">
                <circle id="Oval" fill="#EFEFEF" cx="22" cy="22" r="22"></circle>
                <g id="noun_831984_cc" transform="translate(11.000000, 12.000000)" fill-rule="nonzero" fill="#90A4AE">
                    <g id="Group">
                        <path d="M18.1806604,1.99838567 L16.6217912,1.99838567 L16.6217912,1.08140374 C16.6217912,0.743568295 16.3295032,0.453995055 15.9885005,0.453995055 C15.6474979,0.453995055 15.3552099,0.743568295 15.3552099,1.08140374 L15.3552099,1.99838567 L6.02635154,1.99838567 L6.02635154,1.08140374 C6.02635154,0.743568295 5.73406355,0.453995055 5.39306089,0.453995055 C5.05205824,0.453995055 4.75977025,0.743568295 4.75977025,1.08140374 L4.75977025,1.99838567 L3.20090097,1.99838567 C1.4958877,1.99838567 0.0831624168,3.37385856 0.0831624168,5.0871669 L0.0831624168,16.8148831 C0.0831624168,18.5040604 1.47153037,19.9036644 3.20090097,19.9036644 L18.1319458,19.9036644 C19.836959,19.9036644 21.2496843,18.5281915 21.2496843,16.8148831 L21.2496843,5.0871669 C21.2740417,3.39798967 19.8856737,1.99838567 18.1806604,1.99838567 Z M18.1806604,18.648847 L3.2252583,18.648847 C2.20225034,18.648847 1.34974371,17.8283895 1.34974371,16.790752 L1.34974371,9.3825033 L20.0318177,9.3825033 L20.0318177,16.8148831 C20.0318177,17.8283895 19.2036684,18.648847 18.1806604,18.648847 Z M3.2252583,3.22907194 L4.78412758,3.22907194 L4.78412758,5.37674014 C4.78412758,5.71457559 5.07641557,6.00414883 5.41741823,6.00414883 C5.75842088,6.00414883 6.05070887,5.71457559 6.05070887,5.37674014 L6.05070887,3.22907194 L15.3795672,3.22907194 L15.3795672,5.37674014 C15.3795672,5.71457559 15.6718552,6.00414883 16.0128578,6.00414883 C16.3538605,6.00414883 16.6461485,5.71457559 16.6461485,5.37674014 L16.6461485,3.22907194 L18.2050178,3.22907194 C19.2280257,3.22907194 20.0805324,4.04952946 20.0805324,5.0871669 L20.0805324,8.12768593 L1.37410104,8.12768593 L1.37410104,5.0871669 C1.37410104,4.07366056 2.20225034,3.22907194 3.2252583,3.22907194 Z" id="Shape"></path>
                    </g>
                </g>
            </g>
        </g>
    </g>
</svg>