<?xml version="1.0" encoding="UTF-8"?>
<svg width="33px" height="42px" viewBox="0 0 33 42" version="1.1" xmlns="http://www.w3.org/2000/svg" xmlns:xlink="http://www.w3.org/1999/xlink">
    <!-- Generator: Sketch 42 (36781) - http://www.bohemiancoding.com/sketch -->
    <title>Group 11</title>
    <desc>Created with Sketch.</desc>
    <defs></defs>
    <g id="Page-1" stroke="none" stroke-width="1" fill="none" fill-rule="evenodd">
        <g id="Create-NEwGroup" transform="translate(-673.000000, -241.000000)" stroke-width="2" stroke="#FFFFFF">
            <g id="Delete-Icon" transform="translate(674.000000, 242.000000)">
                <g id="Group-11">
                    <g id="Delete-2.4">
                        <g id="Group">
                            <g id="Shape">
                                <path d="M29.14,6.16071429 L27.9916837,36.9687962 C27.9410482,38.3272926 26.7862166,39.4285714 25.4199842,39.4285714 L5.58001581,39.4285714 C4.21034089,39.4285714 3.05874297,38.3216903 3.00831626,36.9687962 L1.86,6.16071429" stroke-linecap="round" stroke-linejoin="round"></path>
                                <path d="M15.2394958,12.3214286 L15.2394958,33.2678571" stroke-linecap="round" stroke-linejoin="round"></path>
                                <path d="M8.68,12.3214286 L9.78714286,33.2678571" stroke-linecap="round" stroke-linejoin="round"></path>
                                <path d="M22.8071429,12.3214286 L21.7,33.2678571" stroke-linecap="round" stroke-linejoin="round"></path>
                                <path d="M0,3.4789916 L31,3.4789916" stroke-linecap="round" stroke-linejoin="round"></path>
                                <path d="M9.3,4.3125 L9.94542335,2.06783211 C10.273799,0.925799984 11.5092332,0 12.704728,0 L18.295272,0 C19.4908183,0 20.7260111,0.925139432 21.0545767,2.06783211 L21.7,4.3125"></path>
                            </g>
                        </g>
                    </g>
                </g>
            </g>
        </g>
    </g>
</svg>