<?xml version="1.0" encoding="UTF-8"?>
<svg width="90px" height="90px" viewBox="0 0 90 90" version="1.1" xmlns="http://www.w3.org/2000/svg" xmlns:xlink="http://www.w3.org/1999/xlink">
    <!-- Generator: Sketch 42 (36781) - http://www.bohemiancoding.com/sketch -->
    <title>Group 10</title>
    <desc>Created with Sketch.</desc>
    <defs>
        <circle id="path-1" cx="35" cy="35" r="35"></circle>
        <filter x="-50%" y="-50%" width="200%" height="200%" filterUnits="objectBoundingBox" id="filter-2">
            <feOffset dx="0" dy="2" in="SourceAlpha" result="shadowOffsetOuter1"></feOffset>
            <feGaussianBlur stdDeviation="5" in="shadowOffsetOuter1" result="shadowBlurOuter1"></feGaussianBlur>
            <feColorMatrix values="0 0 0 0 0   0 0 0 0 0   0 0 0 0 0  0 0 0 0.284759964 0" type="matrix" in="shadowBlurOuter1"></feColorMatrix>
        </filter>
    </defs>
    <g id="Page-1" stroke="none" stroke-width="1" fill="none" fill-rule="evenodd">
        <g id="Dashboard" transform="translate(-868.000000, -647.000000)">
            <g id="Group-10" transform="translate(878.000000, 655.000000)">
                <g id="Oval-3">
                    <use fill="black" fill-opacity="1" filter="url(#filter-2)" xlink:href="#path-1"></use>
                    <use fill="#7986CB" fill-rule="evenodd" xlink:href="#path-1"></use>
                </g>
                <g id="DIH-Hotel" transform="translate(22.000000, 18.000000)" fill-rule="nonzero" fill="#FFFFFF">
                    <g id="Group">
                        <g>
                            <path d="M27.6631519,9.45454545 L26.2097464,9.45454545 C25.2635794,9.45454545 24.4642063,10.0647273 24.1633514,10.9090909 L23.3029353,10.9090909 L23.3029353,3.63636364 C23.3029353,3.23418182 22.9780992,2.90909091 22.5762325,2.90909091 L18.216016,2.90909091 L18.216016,2.18181818 C18.216016,0.978909091 17.237874,0 16.0359077,0 L10.2222856,0 C9.02031918,0 8.04217726,0.978909091 8.04217726,2.18181818 L8.04217726,2.90909091 L3.68196067,2.90909091 C3.28082075,2.90909091 2.95525791,3.23418182 2.95525791,3.63636364 L2.95525791,30.5454545 L0.775149615,30.5454545 C0.374009689,30.5454545 0.048446851,30.8705455 0.048446851,31.2727273 C0.048446851,31.6749091 0.374009689,32 0.775149615,32 L25.4830436,32 C25.8849102,32 26.2097464,31.6749091 26.2097464,31.2727273 C26.2097464,30.8705455 25.8849102,30.5454545 25.4830436,30.5454545 L23.3029353,30.5454545 L23.3029353,21.0909091 L24.1633514,21.0909091 C24.4642063,21.9352727 25.2635794,22.5454545 26.2097464,22.5454545 L27.6631519,22.5454545 C28.8651183,22.5454545 29.8432602,21.5665455 29.8432602,20.3636364 L29.8432602,11.6363636 C29.8432602,10.4334545 28.8651183,9.45454545 27.6631519,9.45454545 Z M9.49558279,2.18181818 C9.49558279,1.78036364 9.82187233,1.45454545 10.2222856,1.45454545 L16.0359077,1.45454545 C16.4370476,1.45454545 16.7626104,1.78036364 16.7626104,2.18181818 L16.7626104,2.90909091 L9.49558279,2.90909091 L9.49558279,2.18181818 Z M12.4023938,30.5454545 L9.49558279,30.5454545 L9.49558279,24.7272727 L12.4023938,24.7272727 L12.4023938,26.9090909 C12.0012539,26.9090909 11.6756911,27.2341818 11.6756911,27.6363636 C11.6756911,28.0385455 12.0012539,28.3636364 12.4023938,28.3636364 L12.4023938,30.5454545 Z M16.7626104,30.5454545 L13.8557994,30.5454545 L13.8557994,28.3636364 C14.2569393,28.3636364 14.5825021,28.0385455 14.5825021,27.6363636 C14.5825021,27.2341818 14.2569393,26.9090909 13.8557994,26.9090909 L13.8557994,24.7272727 L16.7626104,24.7272727 L16.7626104,30.5454545 Z M21.8495298,30.5454545 L18.216016,30.5454545 L18.216016,24.7272727 C18.6178826,24.7272727 18.9427187,24.4021818 18.9427187,24 C18.9427187,23.5978182 18.6178826,23.2727273 18.216016,23.2727273 L17.4893132,23.2727273 L8.76888002,23.2727273 L8.04217726,23.2727273 C7.64103733,23.2727273 7.31547449,23.5978182 7.31547449,24 C7.31547449,24.4021818 7.64103733,24.7272727 8.04217726,24.7272727 L8.04217726,30.5454545 L4.40866344,30.5454545 L4.40866344,4.36363636 L21.8495298,4.36363636 L21.8495298,30.5454545 Z M24.0296381,19.6363636 L23.3029353,19.6363636 L23.3029353,12.3636364 L24.0296381,12.3636364 L24.0296381,19.6363636 Z M28.3898547,20.3636364 C28.3898547,20.7650909 28.0642918,21.0909091 27.6631519,21.0909091 L26.2097464,21.0909091 C25.8086064,21.0909091 25.4830436,20.7650909 25.4830436,20.3636364 L25.4830436,11.6363636 C25.4830436,11.2349091 25.8086064,10.9090909 26.2097464,10.9090909 L27.6631519,10.9090909 C28.0642918,10.9090909 28.3898547,11.2349091 28.3898547,11.6363636 L28.3898547,20.3636364 Z" id="Shape"></path>
                            <ellipse id="Oval" cx="26.9364491" cy="18.9090909" rx="0.726702764" ry="0.727272727"></ellipse>
                            <ellipse id="Oval" cx="26.9364491" cy="16" rx="0.726702764" ry="0.727272727"></ellipse>
                            <ellipse id="Oval" cx="26.9364491" cy="13.0909091" rx="0.726702764" ry="0.727272727"></ellipse>
                            <path d="M19.5126817,13.4787879 L6.43203192,13.4787879 C6.03089199,13.4787879 5.70532915,13.8038788 5.70532915,14.2060606 L5.70532915,18.569697 C5.70532915,18.9718788 6.03089199,19.2969697 6.43203192,19.2969697 L19.5126817,19.2969697 C19.9145483,19.2969697 20.2393844,18.9718788 20.2393844,18.569697 L20.2393844,14.2060606 C20.2393844,13.8038788 19.9145483,13.4787879 19.5126817,13.4787879 Z M12.245654,17.8424242 L7.15873468,17.8424242 L7.15873468,14.9333333 L12.245654,14.9333333 L12.245654,17.8424242 Z M18.7859789,17.8424242 L13.6990596,17.8424242 L13.6990596,14.9333333 L18.7859789,14.9333333 L18.7859789,17.8424242 Z" id="Shape"></path>
                            <path d="M19.5126817,5.47878788 L6.43203192,5.47878788 C6.03089199,5.47878788 5.70532915,5.80387879 5.70532915,6.20606061 L5.70532915,10.569697 C5.70532915,10.9718788 6.03089199,11.2969697 6.43203192,11.2969697 L19.5126817,11.2969697 C19.9145483,11.2969697 20.2393844,10.9718788 20.2393844,10.569697 L20.2393844,6.20606061 C20.2393844,5.80387879 19.9145483,5.47878788 19.5126817,5.47878788 Z M12.245654,9.84242424 L7.15873468,9.84242424 L7.15873468,6.93333333 L12.245654,6.93333333 L12.245654,9.84242424 Z M18.7859789,9.84242424 L13.6990596,9.84242424 L13.6990596,6.93333333 L18.7859789,6.93333333 L18.7859789,9.84242424 Z" id="Shape"></path>
                        </g>
                    </g>
                </g>
            </g>
        </g>
    </g>
</svg>