<?xml version="1.0" encoding="UTF-8"?>
<svg width="38px" height="38px" viewBox="0 0 38 38" version="1.1" xmlns="http://www.w3.org/2000/svg" xmlns:xlink="http://www.w3.org/1999/xlink">
    <!-- Generator: Sketch 42 (36781) - http://www.bohemiancoding.com/sketch -->
    <title>Group 9</title>
    <desc>Created with Sketch.</desc>
    <defs></defs>
    <g id="Page-1" stroke="none" stroke-width="1" fill="none" fill-rule="evenodd">
        <g id="Create-NEwGroup" transform="translate(-989.000000, -104.000000)">
            <g id="Edit" transform="translate(989.875000, 105.000000)">
                <g id="Group-9">
                    <g id="Group-10" fill="#F3F5F7" stroke="#D5D8DE">
                        <g id="Group-5">
                            <ellipse id="Oval-5" cx="18" cy="18" rx="18" ry="18"></ellipse>
                        </g>
                    </g>
                    <g id="noun_114960_cc" transform="translate(11.500000, 11.000000)" fill-rule="nonzero" fill="#90A4AE">
                        <g id="Group">
                            <g id="Shape">
                                <path d="M13.9364372,2.07578947 L12.2256217,0.345964912 C12.0042221,0.122105263 11.7023135,0 11.3802776,0 C11.0582418,0 10.7563331,0.122105263 10.5349335,0.366315789 L9.66946212,1.22105263 L9.66946212,1.22105263 L1.13551186,9.84982456 L1.13551186,9.84982456 L0.129149798,13.2687719 C0.0285135917,13.5740351 0.068768074,13.8792982 0.229786003,14.082807 C0.370676692,14.2659649 0.592076345,14.3677193 0.85373048,14.3677193 C0.954366686,14.3677193 1.07513013,14.3473684 1.17576634,14.3066667 L4.55714286,13.2891228 L4.5772701,13.3094737 L12.5476576,5.25052632 L12.5476576,5.25052632 L13.9766917,3.80561404 C14.1980914,3.58175439 14.3389821,3.27649123 14.3389821,2.95087719 C14.2987276,2.62526316 14.1779641,2.32 13.9364372,2.07578947 Z M2.04123771,13.2077193 L1.23614806,12.3936842 L1.71920185,10.7452632 L3.67154425,12.7192982 L2.04123771,13.2077193 Z M4.55714286,12.1494737 L2.2827646,9.84982456 L9.66946212,2.38105263 L10.8167149,3.54105263 L11.9639676,4.70105263 L4.55714286,12.1494737 Z M13.3728745,3.23578947 L12.5275304,4.09052632 L11.3802776,2.93052632 L10.2330249,1.77052632 L11.078369,0.915789474 C11.2393869,0.752982456 11.5010411,0.752982456 11.6419318,0.915789474 L13.3527473,2.64561404 C13.4332562,2.72701754 13.4735107,2.82877193 13.4735107,2.93052632 C13.4936379,3.05263158 13.4533835,3.15438596 13.3728745,3.23578947 Z"></path>
                                <path d="M8.92475419,3.9277193 L3.81243493,9.09684211 C3.651417,9.25964912 3.651417,9.50385965 3.81243493,9.66666667 C3.97345286,9.82947368 4.21497976,9.82947368 4.37599769,9.66666667 L9.50844419,4.47719298 C9.66946212,4.31438596 9.66946212,4.07017544 9.50844419,3.90736842 C9.34742626,3.76491228 9.08577212,3.76491228 8.92475419,3.9277193 Z"></path>
                            </g>
                        </g>
                    </g>
                </g>
            </g>
        </g>
    </g>
</svg>