<?xml version="1.0" encoding="UTF-8"?>
<svg width="37px" height="52px" viewBox="0 0 37 52" version="1.1" xmlns="http://www.w3.org/2000/svg" xmlns:xlink="http://www.w3.org/1999/xlink">
    <!-- Generator: Sketch 42 (36781) - http://www.bohemiancoding.com/sketch -->
    <title>Group</title>
    <desc>Created with Sketch.</desc>
    <defs></defs>
    <g id="Page-1" stroke="none" stroke-width="1" fill="none" fill-rule="evenodd">
        <g id="Create-NEwGroup" transform="translate(-722.000000, -400.000000)" stroke-width="0.5" stroke="#B7BCC6" fill="#B7BCC6" fill-rule="nonzero">
            <g id="Doucment" transform="translate(722.000000, 401.000000)">
                <g id="Group">
                    <g id="Shape">
                        <path d="M4.52453622,0 C2.20073157,0 0.307692308,1.90713589 0.307692308,4.25112803 L0.307692308,46.2926705 C0.307692308,48.6366626 2.19840311,50.5461472 4.52453622,50.5461472 L31.6417997,50.5461472 C33.9656044,50.5461472 35.8563152,48.6390113 35.8563152,46.2926705 L35.8563152,14.6887043 C35.8563152,13.5542872 35.4185644,12.4856335 34.6222305,11.6823817 L24.2792042,1.24715414 C23.4828704,0.44390232 22.4234203,0.00234868952 21.2987734,0.00234868952 L4.52453622,0.00234868952 L4.52453622,0 Z M23.5038265,2.69629557 L33.1855697,12.4621466 L25.4667196,12.4621466 C24.383985,12.4621466 23.5038265,11.574342 23.5038265,10.4822013 L23.5038265,2.69629557 L23.5038265,2.69629557 Z M25.4667196,14.0428147 L34.2054359,14.0428147 C34.2566621,14.251848 34.291589,14.4655788 34.291589,14.6887043 L34.291589,46.2950192 C34.291589,47.7699962 33.1040736,48.9678278 31.6417997,48.9678278 L4.52453622,48.9678278 C3.06226235,48.9678278 1.87474695,47.7676475 1.87474695,46.2950192 L1.87474695,4.25347672 C1.87474695,2.7784997 3.06459081,1.58066805 4.52453622,1.58066805 L21.2987734,1.58066805 C21.5176488,1.58066805 21.7295388,1.61589839 21.9367719,1.66756956 L21.9367719,10.4822013 C21.9367719,12.4457058 23.5201257,14.0428147 25.4667196,14.0428147 Z"></path>
                        <path d="M27.091708,29.7950698 L7.24390155,29.7950698 C6.8108077,29.7950698 6.46153846,30.1473732 6.46153846,30.5842295 C6.46153846,31.0210857 6.8108077,31.3733892 7.24390155,31.3733892 L27.0893795,31.3733892 C27.5224734,31.3733892 27.8717426,31.0210857 27.8717426,30.5842295 C27.8740711,30.1473732 27.5248019,29.7950698 27.091708,29.7950698 Z"></path>
                        <path d="M6.46153846,21.8940008 C6.46153846,22.330857 6.8108077,22.6831605 7.24390155,22.6831605 L27.0893795,22.6831605 C27.5224734,22.6831605 27.8717426,22.330857 27.8717426,21.8940008 C27.8717426,21.4571445 27.5224734,21.1048411 27.0893795,21.1048411 L7.24390155,21.1048411 C6.81313616,21.1048411 6.46153846,21.4594932 6.46153846,21.8940008 Z"></path>
                        <path d="M27.091708,37.2438372 L7.24390155,37.2438372 C6.8108077,37.2438372 6.46153846,37.5961407 6.46153846,38.0329969 C6.46153846,38.4698532 6.8108077,38.8221566 7.24390155,38.8221566 L27.0893795,38.8221566 C27.5224734,38.8221566 27.8717426,38.4698532 27.8717426,38.0329969 C27.8717426,37.5961407 27.5248019,37.2438372 27.091708,37.2438372 Z"></path>
                    </g>
                </g>
            </g>
        </g>
    </g>
</svg>