<?xml version="1.0" encoding="UTF-8"?>
<svg width="14px" height="13px" viewBox="0 0 14 13" version="1.1" xmlns="http://www.w3.org/2000/svg" xmlns:xlink="http://www.w3.org/1999/xlink">
    <!-- Generator: Sketch 42 (36781) - http://www.bohemiancoding.com/sketch -->
    <title>filter</title>
    <desc>Created with Sketch.</desc>
    <defs></defs>
    <g id="Page-1" stroke="none" stroke-width="1" fill="none" fill-rule="evenodd">
        <g id="Create-NEwGroup" transform="translate(-687.000000, -160.000000)" fill-rule="nonzero" fill="#90A4AE">
            <g id="filter" transform="translate(687.000000, 160.000000)">
                <g id="Artboard">
                    <g id="Group">
                        <g id="Shape">
                            <path d="M2.8,2.0928596 L2.8,0.573529412 C2.8,0.309569784 2.57614238,0.0955882353 2.3,0.0955882353 C2.02385762,0.0955882353 1.8,0.309569784 1.8,0.573529412 L1.8,2.13598634 M1.8,5.38411936 L1.8,12.4264706 L1.8,12.4264706 C1.8,12.6904302 2.02385762,12.9044118 2.3,12.9044118 C2.57614238,12.9044118 2.8,12.6904302 2.8,12.4264706 L2.8,5.37105067"></path>
                            <path d="M4.5909091,3.72196691 C4.5909091,2.53734352 3.58547554,1.57720588 2.34545454,1.57720588 C1.10543354,1.57720588 0.1,2.53734352 0.1,3.72196691 C0.1,4.90659031 1.10543354,5.86672794 2.34545454,5.86672794 C3.58547554,5.86672794 4.5909091,4.90659031 4.5909091,3.72196691 Z M1.1,3.72196691 C1.1,3.06547194 1.6574997,2.53308824 2.34545454,2.53308824 C3.0334094,2.53308824 3.5909091,3.06547194 3.5909091,3.72196691 C3.5909091,4.37846188 3.0334094,4.91084559 2.34545454,4.91084559 C1.6574997,4.91084559 1.1,4.37846188 1.1,3.72196691 Z"></path>
                            <path d="M12.2,2.0928596 L12.2,0.573529412 C12.2,0.309569784 11.9761424,0.0955882353 11.7,0.0955882353 C11.4238576,0.0955882353 11.2,0.309569784 11.2,0.573529412 L11.2,2.13598634 M11.2,5.38411936 L11.2,12.4264706 L11.2,12.4264706 C11.2,12.6904302 11.4238576,12.9044118 11.7,12.9044118 C11.9761424,12.9044118 12.2,12.6904302 12.2,12.4264706 L12.2,5.37105067"></path>
                            <path d="M13.9909091,3.72196691 C13.9909091,2.53734352 12.9854755,1.57720588 11.7454545,1.57720588 C10.5054335,1.57720588 9.5,2.53734352 9.5,3.72196691 C9.5,4.90659031 10.5054335,5.86672794 11.7454545,5.86672794 C12.9854755,5.86672794 13.9909091,4.90659031 13.9909091,3.72196691 Z M10.5,3.72196691 C10.5,3.06547194 11.0574997,2.53308824 11.7454545,2.53308824 C12.4334094,2.53308824 12.9909091,3.06547194 12.9909091,3.72196691 C12.9909091,4.37846188 12.4334094,4.91084559 11.7454545,4.91084559 C11.0574997,4.91084559 10.5,4.37846188 10.5,3.72196691 Z"></path>
                            <path d="M7.6,2.0928596 L7.6,0.573529412 C7.6,0.309569784 7.37614238,0.0955882353 7.1,0.0955882353 C6.82385762,0.0955882353 6.6,0.309569784 6.6,0.573529412 L6.6,2.13598634 M6.6,5.38411936 L6.6,12.4264706 L6.6,12.4264706 C6.6,12.6904302 6.82385762,12.9044118 7.1,12.9044118 C7.37614238,12.9044118 7.6,12.6904302 7.6,12.4264706 L7.6,5.37105067" transform="translate(7.100000, 6.500000) rotate(-180.000000) translate(-7.100000, -6.500000) "></path>
                            <path d="M9.2999999,9.27803309 C9.2999999,8.09340969 8.29456636,7.13327206 7.05454536,7.13327206 C5.81452436,7.13327206 4.8090908,8.09340969 4.8090908,9.27803309 C4.8090908,10.4626565 5.81452436,11.4227941 7.05454536,11.4227941 C8.29456636,11.4227941 9.2999999,10.4626565 9.2999999,9.27803309 Z M5.8090908,9.27803309 C5.8090908,8.62153812 6.3665905,8.08915441 7.05454536,8.08915441 C7.7425002,8.08915441 8.2999999,8.62153812 8.2999999,9.27803309 C8.2999999,9.93452806 7.7425002,10.4669118 7.05454536,10.4669118 C6.3665905,10.4669118 5.8090908,9.93452806 5.8090908,9.27803309 Z" transform="translate(7.054545, 9.278033) rotate(-180.000000) translate(-7.054545, -9.278033) "></path>
                        </g>
                    </g>
                </g>
            </g>
        </g>
    </g>
</svg>