<?xml version="1.0" encoding="UTF-8"?>
<svg width="20px" height="18px" viewBox="0 0 20 18" version="1.1" xmlns="http://www.w3.org/2000/svg" xmlns:xlink="http://www.w3.org/1999/xlink">
    <!-- Generator: Sketch 42 (36781) - http://www.bohemiancoding.com/sketch -->
    <title>Group 3</title>
    <desc>Created with Sketch.</desc>
    <defs></defs>
    <g id="Page-1" stroke="none" stroke-width="1" fill="none" fill-rule="evenodd">
        <g id="Dashboard" transform="translate(-1122.000000, -76.000000)" stroke-width="0.3" stroke="#CCCCCC" fill="#CCCCCC" fill-rule="nonzero">
            <g id="Group-7" transform="translate(1064.000000, 54.000000)">
                <g id="Group-3" transform="translate(59.000000, 22.000000)">
                    <g id="noun_717608_cc">
                        <g id="Group">
                            <path d="M0.988,10.116 L1.895,10.116 C2.1,10.116 2.267,10.283 2.267,10.488 L2.267,16.741 C2.267,17.314 2.734,17.781 3.307,17.781 L6.212,17.781 C6.785,17.781 7.252,17.314 7.252,16.741 L7.252,13.52 C7.252,13.259 7.464,13.047 7.726,13.047 L10.275,13.047 C10.536,13.047 10.748,13.259 10.748,13.52 L10.748,16.741 C10.748,17.314 11.215,17.781 11.788,17.781 L14.693,17.781 C15.266,17.781 15.733,17.314 15.733,16.741 L15.733,10.488 C15.733,10.283 15.9,10.116 16.105,10.116 L17.013,10.116 C17.401,10.116 17.736,9.894 17.888,9.537 C18.04,9.18 17.967,8.784 17.698,8.505 L10.237,0.746 C9.911,0.406 9.471,0.219 9,0.219 C8.529,0.219 8.089,0.406 7.763,0.746 L0.303,8.505 C0.034,8.785 -0.039,9.18 0.113,9.537 C0.265,9.894 0.6,10.116 0.988,10.116 Z M0.711,8.897 L8.171,1.138 C8.39,0.911 8.684,0.786 9,0.786 C9.316,0.786 9.61,0.911 9.829,1.139 L17.29,8.898 C17.4,9.013 17.429,9.169 17.367,9.316 C17.304,9.463 17.172,9.55 17.013,9.55 L16.105,9.55 C15.588,9.55 15.167,9.971 15.167,10.488 L15.167,16.741 C15.167,17.002 14.955,17.214 14.694,17.214 L11.789,17.214 C11.528,17.214 11.315,17.002 11.315,16.741 L11.315,13.52 C11.315,12.947 10.849,12.48 10.275,12.48 L7.726,12.48 C7.153,12.48 6.686,12.946 6.686,13.52 L6.686,16.741 C6.686,17.002 6.474,17.214 6.213,17.214 L3.307,17.214 C3.046,17.214 2.833,17.002 2.833,16.741 L2.833,10.488 C2.833,9.971 2.412,9.55 1.895,9.55 L0.988,9.55 C0.829,9.55 0.696,9.462 0.634,9.316 C0.571,9.168 0.6,9.012 0.711,8.897 Z" id="Shape"></path>
                        </g>
                    </g>
                </g>
            </g>
        </g>
    </g>
</svg>