<?xml version="1.0" encoding="UTF-8"?>
<svg width="21px" height="13px" viewBox="0 0 21 13" version="1.1" xmlns="http://www.w3.org/2000/svg" xmlns:xlink="http://www.w3.org/1999/xlink">
    <!-- Generator: Sketch 42 (36781) - http://www.bohemiancoding.com/sketch -->
    <title>Group 11</title>
    <desc>Created with Sketch.</desc>
    <defs></defs>
    <g id="Page-1" stroke="none" stroke-width="1" fill="none" fill-rule="evenodd">
        <g id="Dashboard" transform="translate(-1121.000000, -324.000000)" fill-rule="nonzero">
            <g id="Group-7" transform="translate(1064.000000, 54.000000)">
                <g id="Group-11" transform="translate(57.000000, 270.000000)">
                    <g id="Lounge">
                        <g id="Group">
                            <g id="Shape">
                                <path d="M18.7775391,3.50429825 L18.7775391,2.03583041 C18.7775391,0.934479532 17.8515234,0.033374269 16.7197266,0.033374269 L3.85839844,0.033374269 C2.72660156,0.033374269 1.80058594,0.934479532 1.80058594,2.03583041 L1.80058594,3.50429825 C0.788828125,3.67116959 3.55271368e-15,4.53890058 3.55271368e-15,5.59019006 L3.55271368e-15,10.2125263 C3.55271368e-15,10.8633246 0.531601563,11.3806257 1.20039063,11.3806257 L1.47476563,11.3806257 L1.47476563,12.2984181 C1.47476563,12.4819766 1.62910156,12.6321608 1.81773438,12.6321608 C2.00636719,12.6321608 2.16070313,12.4819766 2.16070313,12.2984181 L2.16070313,11.3806257 L18.4002734,11.3806257 L18.4002734,12.2984181 C18.4002734,12.4819766 18.5546094,12.6321608 18.7432422,12.6321608 C18.931875,12.6321608 19.0862109,12.4819766 19.0862109,12.2984181 L19.0862109,11.3806257 L19.3605859,11.3806257 C20.029375,11.3806257 20.5609766,10.8633246 20.5609766,10.2125263 L20.5609766,5.59019006 C20.578125,4.53890058 19.7892969,3.67116959 18.7775391,3.50429825 Z M19.8921875,10.2125263 C19.8921875,10.4962076 19.6692578,10.7131404 19.3777344,10.7131404 L1.20039062,10.7131404 C0.908867187,10.7131404 0.6859375,10.4962076 0.6859375,10.2125263 L0.6859375,5.59019006 C0.6859375,4.7892076 1.33757812,4.15509649 2.14355469,4.15509649 C2.94953125,4.15509649 3.60117187,4.80589474 3.60117187,5.59019006 L3.60117187,6.57473099 C3.60117187,6.75828947 3.75550781,6.90847368 3.94414062,6.90847368 L16.6339844,6.90847368 C16.8226172,6.90847368 16.9769531,6.75828947 16.9769531,6.57473099 L16.9769531,5.59019006 C16.9769531,4.7892076 17.6285937,4.15509649 18.4345703,4.15509649 C19.2405469,4.15509649 19.8921875,4.80589474 19.8921875,5.59019006 L19.8921875,10.2125263 Z M3.85839844,0.717546784 L16.7197266,0.717546784 C17.4742578,0.717546784 18.0916016,1.31828363 18.0916016,2.05251754 L18.0916016,3.50429825 C17.0798437,3.67116959 16.2910156,4.53890058 16.2910156,5.57350292 L16.2910156,6.22430117 L4.28710937,6.22430117 L4.28710937,5.57350292 C4.28710937,4.53890058 3.49828125,3.67116959 2.48652344,3.50429825 L2.48652344,2.03583041 C2.48652344,1.31828363 3.10386719,0.717546784 3.85839844,0.717546784 Z" fill="#CCCCCC"></path>
                                <path d="M10.2890625,4.7892076 C10.4776953,4.7892076 10.6320312,4.63902339 10.6320312,4.45546491 L10.6320312,2.50307018 C10.6320312,2.3195117 10.4776953,2.16932749 10.2890625,2.16932749 C10.1004297,2.16932749 9.94609375,2.3195117 9.94609375,2.50307018 L9.94609375,4.45546491 C9.94609375,4.63902339 10.1004297,4.7892076 10.2890625,4.7892076 Z" stroke="#FFFFFF" stroke-width="0.3" fill="#FFFFFF"></path>
                            </g>
                        </g>
                    </g>
                </g>
            </g>
        </g>
    </g>
</svg>