<?xml version="1.0" encoding="UTF-8"?>
<svg width="37px" height="37px" viewBox="0 0 37 37" version="1.1" xmlns="http://www.w3.org/2000/svg" xmlns:xlink="http://www.w3.org/1999/xlink">
    <!-- Generator: Sketch 42 (36781) - http://www.bohemiancoding.com/sketch -->
    <title>Group 8</title>
    <desc>Created with Sketch.</desc>
    <defs></defs>
    <g id="Page-1" stroke="none" stroke-width="1" fill="none" fill-rule="evenodd">
        <g id="Dashboard-Select" transform="translate(-1152.000000, -287.000000)">
            <g id="Group-2" transform="translate(1152.000000, 287.000000)">
                <g id="Group-8">
                    <g id="Group-7">
                        <ellipse id="Oval-3" fill="#FF7043" cx="18.5" cy="18.5" rx="18.5" ry="18.5"></ellipse>
                        <g id="Lounge" transform="translate(7.400000, 12.523077)" stroke-width="0.3" stroke="#FFFFFF" fill="#FFFFFF" fill-rule="nonzero">
                            <g id="Group">
                                <g id="Shape">
                                    <path d="M19.7928011,3.72928528 L19.7928011,2.16653716 C19.7928011,0.994476075 18.8167177,0.0355170027 17.623727,0.0355170027 L4.06701392,0.0355170027 C2.87402317,0.0355170027 1.89793983,0.994476075 1.89793983,2.16653716 L1.89793983,3.72928528 C0.831478402,3.90687029 -1.77635684e-15,4.83031236 -1.77635684e-15,5.94909795 L-1.77635684e-15,10.8682028 C-1.77635684e-15,11.5607844 0.56034414,12.1112979 1.26529322,12.1112979 L1.5545031,12.1112979 L1.5545031,13.0880155 C1.5545031,13.283359 1.71718366,13.4431855 1.91601545,13.4431855 C2.11484724,13.4431855 2.2775278,13.283359 2.2775278,13.0880155 L2.2775278,12.1112979 L19.3951375,12.1112979 L19.3951375,13.0880155 C19.3951375,13.283359 19.5578181,13.4431855 19.7566499,13.4431855 C19.9554816,13.4431855 20.1181622,13.283359 20.1181622,13.0880155 L20.1181622,12.1112979 L20.4073721,12.1112979 C21.1123212,12.1112979 21.6726653,11.5607844 21.6726653,10.8682028 L21.6726653,5.94909795 C21.6907409,4.83031236 20.8592625,3.90687029 19.7928011,3.72928528 Z M20.9677162,10.8682028 C20.9677162,11.1700973 20.7327332,11.4009579 20.4254477,11.4009579 L1.26529322,11.4009579 C0.958007724,11.4009579 0.723024697,11.1700973 0.723024697,10.8682028 L0.723024697,5.94909795 C0.723024697,5.09668988 1.40989816,4.42186683 2.25945218,4.42186683 C3.1090062,4.42186683 3.79587966,5.11444839 3.79587966,5.94909795 L3.79587966,6.99684953 C3.79587966,7.19219304 3.95856022,7.35201955 4.15739201,7.35201955 L17.5333489,7.35201955 C17.7321807,7.35201955 17.8948613,7.19219304 17.8948613,6.99684953 L17.8948613,5.94909795 C17.8948613,5.09668988 18.5817347,4.42186683 19.4312887,4.42186683 C20.2808428,4.42186683 20.9677162,5.11444839 20.9677162,5.94909795 L20.9677162,10.8682028 Z M4.06701392,0.763615558 L17.623727,0.763615558 C18.4190542,0.763615558 19.0697764,1.40292161 19.0697764,2.18429566 L19.0697764,3.72928528 C18.003315,3.90687029 17.1718366,4.83031236 17.1718366,5.93133945 L17.1718366,6.623921 L4.51890436,6.623921 L4.51890436,5.93133945 C4.51890436,4.83031236 3.68742596,3.90687029 2.62096453,3.72928528 L2.62096453,2.16653716 C2.62096453,1.40292161 3.27168676,0.763615558 4.06701392,0.763615558 Z"></path>
                                    <path d="M10.8453705,5.09668988 C11.0442023,5.09668988 11.2068828,4.93686337 11.2068828,4.74151986 L11.2068828,2.6637752 C11.2068828,2.46843169 11.0442023,2.30860517 10.8453705,2.30860517 C10.6465387,2.30860517 10.4838581,2.46843169 10.4838581,2.6637752 L10.4838581,4.74151986 C10.4838581,4.93686337 10.6465387,5.09668988 10.8453705,5.09668988 Z"></path>
                                </g>
                            </g>
                        </g>
                    </g>
                </g>
            </g>
        </g>
    </g>
</svg>