<?xml version="1.0" encoding="UTF-8"?>
<svg width="90px" height="90px" viewBox="0 0 90 90" version="1.1" xmlns="http://www.w3.org/2000/svg" xmlns:xlink="http://www.w3.org/1999/xlink">
    <!-- Generator: Sketch 42 (36781) - http://www.bohemiancoding.com/sketch -->
    <title>Group 9</title>
    <desc>Created with Sketch.</desc>
    <defs>
        <circle id="path-1" cx="35" cy="35" r="35"></circle>
        <filter x="-50%" y="-50%" width="200%" height="200%" filterUnits="objectBoundingBox" id="filter-2">
            <feOffset dx="0" dy="2" in="SourceAlpha" result="shadowOffsetOuter1"></feOffset>
            <feGaussianBlur stdDeviation="5" in="shadowOffsetOuter1" result="shadowBlurOuter1"></feGaussianBlur>
            <feColorMatrix values="0 0 0 0 0   0 0 0 0 0   0 0 0 0 0  0 0 0 0.284759964 0" type="matrix" in="shadowBlurOuter1"></feColorMatrix>
        </filter>
    </defs>
    <g id="Page-1" stroke="none" stroke-width="1" fill="none" fill-rule="evenodd">
        <g id="Dashboard" transform="translate(-613.000000, -647.000000)">
            <g id="Group-9" transform="translate(623.000000, 655.000000)">
                <g id="Oval-3">
                    <use fill="black" fill-opacity="1" filter="url(#filter-2)" xlink:href="#path-1"></use>
                    <use fill="#FF7043" fill-rule="evenodd" xlink:href="#path-1"></use>
                </g>
                <g id="Lounge" transform="translate(17.000000, 27.000000)" stroke-width="0.3" stroke="#FFFFFF" fill="#FFFFFF" fill-rule="nonzero">
                    <g id="Group">
                        <g id="Shape">
                            <path d="M32.2633929,6.07894737 L32.2633929,3.53157895 C32.2633929,1.62105263 30.6723214,0.0578947368 28.7276786,0.0578947368 L6.62946429,0.0578947368 C4.68482143,0.0578947368 3.09375,1.62105263 3.09375,3.53157895 L3.09375,6.07894737 C1.35535714,6.36842105 3.55271368e-15,7.87368421 3.55271368e-15,9.69736842 L3.55271368e-15,17.7157895 C3.55271368e-15,18.8447368 0.913392857,19.7421053 2.0625,19.7421053 L2.53392857,19.7421053 L2.53392857,21.3342105 C2.53392857,21.6526316 2.79910714,21.9131579 3.12321429,21.9131579 C3.44732143,21.9131579 3.7125,21.6526316 3.7125,21.3342105 L3.7125,19.7421053 L31.6151786,19.7421053 L31.6151786,21.3342105 C31.6151786,21.6526316 31.8803571,21.9131579 32.2044643,21.9131579 C32.5285714,21.9131579 32.79375,21.6526316 32.79375,21.3342105 L32.79375,19.7421053 L33.2651786,19.7421053 C34.4142857,19.7421053 35.3276786,18.8447368 35.3276786,17.7157895 L35.3276786,9.69736842 C35.3571429,7.87368421 34.0017857,6.36842105 32.2633929,6.07894737 Z M34.1785714,17.7157895 C34.1785714,18.2078947 33.7955357,18.5842105 33.2946429,18.5842105 L2.0625,18.5842105 C1.56160714,18.5842105 1.17857143,18.2078947 1.17857143,17.7157895 L1.17857143,9.69736842 C1.17857143,8.30789474 2.29821429,7.20789474 3.68303571,7.20789474 C5.06785714,7.20789474 6.1875,8.33684211 6.1875,9.69736842 L6.1875,11.4052632 C6.1875,11.7236842 6.45267857,11.9842105 6.77678571,11.9842105 L28.5803571,11.9842105 C28.9044643,11.9842105 29.1696429,11.7236842 29.1696429,11.4052632 L29.1696429,9.69736842 C29.1696429,8.30789474 30.2892857,7.20789474 31.6741071,7.20789474 C33.0589286,7.20789474 34.1785714,8.33684211 34.1785714,9.69736842 L34.1785714,17.7157895 Z M6.62946429,1.24473684 L28.7276786,1.24473684 C30.0241071,1.24473684 31.0848214,2.28684211 31.0848214,3.56052632 L31.0848214,6.07894737 C29.3464286,6.36842105 27.9910714,7.87368421 27.9910714,9.66842105 L27.9910714,10.7973684 L7.36607143,10.7973684 L7.36607143,9.66842105 C7.36607143,7.87368421 6.01071429,6.36842105 4.27232143,6.07894737 L4.27232143,3.53157895 C4.27232143,2.28684211 5.33303571,1.24473684 6.62946429,1.24473684 Z"></path>
                            <path d="M17.6785714,8.30789474 C18.0026786,8.30789474 18.2678571,8.04736842 18.2678571,7.72894737 L18.2678571,4.34210526 C18.2678571,4.02368421 18.0026786,3.76315789 17.6785714,3.76315789 C17.3544643,3.76315789 17.0892857,4.02368421 17.0892857,4.34210526 L17.0892857,7.72894737 C17.0892857,8.04736842 17.3544643,8.30789474 17.6785714,8.30789474 Z"></path>
                        </g>
                    </g>
                </g>
            </g>
        </g>
    </g>
</svg>