<?xml version="1.0" encoding="UTF-8"?>
<svg width="29px" height="37px" viewBox="0 0 29 37" version="1.1" xmlns="http://www.w3.org/2000/svg" xmlns:xlink="http://www.w3.org/1999/xlink">
    <!-- Generator: Sketch 42 (36781) - http://www.bohemiancoding.com/sketch -->
    <title>M&amp;G</title>
    <desc>Created with Sketch.</desc>
    <defs></defs>
    <g id="Page-1" stroke="none" stroke-width="1" fill="none" fill-rule="evenodd">
        <g id="Dashboard" transform="translate(-388.000000, -669.000000)" stroke-width="0.3" stroke="#FFFFFF" fill="#FFFFFF" fill-rule="nonzero">
            <g id="M&amp;G" transform="translate(388.000000, 669.000000)">
                <g id="Group">
                    <path d="M21.2469388,22.0238095 C20.7142857,21.6126984 20.3,21.084127 19.944898,20.4968254 C23.7326531,21.0253968 25.8040816,17.4428571 25.8040816,17.4428571 L24.3244898,11.1587302 C24.1469388,10.3952381 24.0285714,9.63174603 23.9102041,8.57460317 C23.377551,3.87619048 19.2938776,0.293650794 14.5,0.293650794 C9.70612245,0.293650794 5.62244898,3.87619048 5.08979592,8.57460317 C4.97142857,9.63174603 4.85306122,10.4539683 4.6755102,11.1587302 L3.19591837,17.4428571 C3.19591837,17.4428571 5.32653061,20.9666667 9.05510204,20.4968254 C8.7,21.084127 8.28571429,21.6126984 7.75306122,22.0238095 C3.61020408,22.1412698 0.295918367,25.4888889 0.295918367,29.6587302 L0.295918367,36.7063492 L28.7040816,36.7063492 L28.7040816,29.6587302 C28.7040816,25.547619 25.3897959,22.1412698 21.2469388,22.0238095 Z M21.3653061,23.1984127 C22.6081633,23.2571429 23.7326531,23.668254 24.6795918,24.3142857 L20.8918367,29.952381 L18.5244898,27.7793651 L21.3653061,23.1984127 Z M8.58163265,11.1 C8.58163265,10.3952381 8.7,9.92539683 8.93673469,9.69047619 C9.46938776,9.22063492 10.9489796,9.57301587 11.6,9.63174603 C12.4877551,9.74920635 13.4346939,9.92539683 14.5,9.92539683 C15.5653061,9.92539683 16.5122449,9.80793651 17.4,9.63174603 C18.5836735,9.45555556 19.6489796,9.27936508 20.0632653,9.69047619 C20.3,9.92539683 20.4183673,10.3952381 20.4183673,11.1 C20.4183673,14.3301587 17.755102,19.3222222 14.5,19.3222222 C11.244898,19.3222222 8.58163265,14.3301587 8.58163265,11.1 Z M4.49795918,17.1492063 L5.8,11.452381 C5.97755102,10.6888889 6.09591837,9.80793651 6.27346939,8.75079365 C6.74693878,4.63968254 10.2979592,1.46825397 14.5,1.46825397 C18.7020408,1.46825397 22.2530612,4.58095238 22.7265306,8.75079365 C22.844898,9.86666667 23.022449,10.6888889 23.2,11.452381 L24.5020408,17.1492063 C24.5020408,17.1492063 22.844898,19.968254 19.4122449,19.1460317 C19.2938776,18.7936508 19.2346939,17.6190476 19.2346939,17.6190476 C20.7142857,15.6809524 21.6020408,13.0968254 21.6020408,11.0412698 C21.6020408,9.92539683 21.3653061,9.22063492 20.8326531,8.75079365 C20.0040816,8.04603175 18.7020408,8.22222222 17.222449,8.45714286 C16.3938776,8.57460317 15.4469388,8.69206349 14.5,8.69206349 C13.5530612,8.69206349 12.6061224,8.57460317 11.777551,8.45714286 C10.2979592,8.22222222 8.99591837,8.04603175 8.16734694,8.75079365 C7.63469388,9.22063492 7.39795918,9.98412698 7.39795918,11.0412698 C7.39795918,13.0380952 8.28571429,15.6222222 9.76530612,17.6190476 C9.76530612,17.6190476 9.70612245,18.7349206 9.5877551,19.1460317 C6.39183673,20.0857143 4.49795918,17.1492063 4.49795918,17.1492063 Z M10.8897959,18.852381 C11.955102,19.8507937 13.1979592,20.4380952 14.5,20.4380952 C15.8612245,20.4380952 17.1040816,19.7920635 18.1102041,18.852381 C18.3469388,20.3206349 19.0571429,21.7301587 20.2408163,22.7285714 L14.5,32.0666667 L8.75918367,22.7285714 C9.88367347,21.7301587 10.6530612,20.3793651 10.8897959,18.852381 Z M10.4755102,27.7793651 L8.10816327,29.952381 L4.32040816,24.3142857 C5.26734694,23.668254 6.39183673,23.2571429 7.63469388,23.1984127 L10.4755102,27.7793651 Z M27.5204082,35.531746 L1.47959184,35.531746 L1.47959184,29.6587302 C1.47959184,27.8380952 2.24897959,26.252381 3.43265306,25.0777778 L7.87142857,31.7142857 L11.1265306,28.7777778 L14.5,34.2984127 L17.8734694,28.7777778 L21.1285714,31.7142857 L25.5673469,25.0777778 C26.7510204,26.252381 27.5204082,27.8968254 27.5204082,29.6587302 L27.5204082,35.531746 Z" id="Shape"></path>
                </g>
            </g>
        </g>
    </g>
</svg>