<?xml version="1.0" encoding="UTF-8"?>
<svg width="36px" height="36px" viewBox="0 0 36 36" version="1.1" xmlns="http://www.w3.org/2000/svg" xmlns:xlink="http://www.w3.org/1999/xlink">
    <!-- Generator: Sketch 42 (36781) - http://www.bohemiancoding.com/sketch -->
    <title>Group 7</title>
    <desc>Created with Sketch.</desc>
    <defs></defs>
    <g id="Page-1" stroke="none" stroke-width="1" fill="none" fill-rule="evenodd">
        <g id="Create-NEwGroup" transform="translate(-251.000000, -356.000000)">
            <g id="Group-11" transform="translate(240.000000, 345.000000)">
                <g id="Group-7" transform="translate(11.000000, 11.000000)">
                    <ellipse id="Oval-3" fill="#4CB6AC" cx="18" cy="18" rx="18" ry="18"></ellipse>
                    <g id="M&amp;G" transform="translate(11.520000, 8.640000)" stroke-width="0.3" stroke="#FFFFFF" fill="#FFFFFF" fill-rule="nonzero">
                        <g id="Group">
                            <path d="M10.0226939,10.3891626 C9.77142857,10.1952315 9.576,9.94589163 9.4084898,9.66884729 C11.1952653,9.91818719 12.1724082,8.22821675 12.1724082,8.22821675 L11.474449,5.26384236 C11.3906939,4.90368473 11.3348571,4.54352709 11.2790204,4.04484729 C11.0277551,1.82849261 9.10138776,0.138522167 6.84,0.138522167 C4.57861224,0.138522167 2.6522449,1.82849261 2.40097959,4.04484729 C2.34514286,4.54352709 2.28930612,4.93138916 2.20555102,5.26384236 L1.50759184,8.22821675 C1.50759184,8.22821675 2.51265306,9.89048276 4.2715102,9.66884729 C4.104,9.94589163 3.90857143,10.1952315 3.65730612,10.3891626 C1.70302041,10.4445714 0.139591837,12.0237241 0.139591837,13.9907389 L0.139591837,17.3152709 L13.5404082,17.3152709 L13.5404082,13.9907389 C13.5404082,12.0514286 11.9769796,10.4445714 10.0226939,10.3891626 Z M10.0785306,10.9432512 C10.6648163,10.9709557 11.1952653,11.1648867 11.6419592,11.4696355 L9.85518367,14.1292611 L8.73844898,13.104197 L10.0785306,10.9432512 Z M4.04816327,5.23613793 C4.04816327,4.90368473 4.104,4.68204926 4.21567347,4.57123153 C4.46693878,4.34959606 5.16489796,4.51582266 5.472,4.54352709 C5.89077551,4.59893596 6.33746939,4.68204926 6.84,4.68204926 C7.34253061,4.68204926 7.78922449,4.62664039 8.208,4.54352709 C8.76636735,4.46041379 9.26889796,4.37730049 9.46432653,4.57123153 C9.576,4.68204926 9.63183673,4.90368473 9.63183673,5.23613793 C9.63183673,6.75988177 8.3755102,9.11475862 6.84,9.11475862 C5.3044898,9.11475862 4.04816327,6.75988177 4.04816327,5.23613793 Z M2.12179592,8.08969458 L2.736,5.40236453 C2.8197551,5.0422069 2.87559184,4.62664039 2.95934694,4.12796059 C3.18269388,2.18865025 4.85779592,0.692610837 6.84,0.692610837 C8.82220408,0.692610837 10.4973061,2.16094581 10.7206531,4.12796059 C10.7764898,4.65434483 10.8602449,5.0422069 10.944,5.40236453 L11.5582041,8.08969458 C11.5582041,8.08969458 10.7764898,9.41950739 9.15722449,9.03164532 C9.10138776,8.86541872 9.07346939,8.31133005 9.07346939,8.31133005 C9.77142857,7.39708374 10.1902041,6.17808867 10.1902041,5.2084335 C10.1902041,4.68204926 10.0785306,4.34959606 9.82726531,4.12796059 C9.43640816,3.79550739 8.82220408,3.87862069 8.1242449,3.98943842 C7.73338776,4.04484729 7.28669388,4.10025616 6.84,4.10025616 C6.39330612,4.10025616 5.94661224,4.04484729 5.5557551,3.98943842 C4.85779592,3.87862069 4.24359184,3.79550739 3.85273469,4.12796059 C3.60146939,4.34959606 3.48979592,4.70975369 3.48979592,5.2084335 C3.48979592,6.15038424 3.90857143,7.36937931 4.60653061,8.31133005 C4.60653061,8.31133005 4.57861224,8.83771429 4.52277551,9.03164532 C3.01518367,9.47491626 2.12179592,8.08969458 2.12179592,8.08969458 Z M5.13697959,8.89312315 C5.6395102,9.36409852 6.22579592,9.64114286 6.84,9.64114286 C7.48212245,9.64114286 8.06840816,9.33639409 8.54302041,8.89312315 C8.65469388,9.58573399 8.98971429,10.2506404 9.54808163,10.7216158 L6.84,15.1266207 L4.13191837,10.7216158 C4.66236735,10.2506404 5.02530612,9.61343842 5.13697959,8.89312315 Z M4.94155102,13.104197 L3.82481633,14.1292611 L2.03804082,11.4696355 C2.48473469,11.1648867 3.01518367,10.9709557 3.60146939,10.9432512 L4.94155102,13.104197 Z M12.9820408,16.7611823 L0.697959184,16.7611823 L0.697959184,13.9907389 C0.697959184,13.1319015 1.06089796,12.3838818 1.61926531,11.8297931 L3.71314286,14.9603941 L5.24865306,13.5751724 L6.84,16.1793892 L8.43134694,13.5751724 L9.96685714,14.9603941 L12.0607347,11.8297931 C12.619102,12.3838818 12.9820408,13.1596059 12.9820408,13.9907389 L12.9820408,16.7611823 Z" id="Shape"></path>
                        </g>
                    </g>
                </g>
            </g>
        </g>
    </g>
</svg>