<?xml version="1.0" encoding="UTF-8"?>
<svg width="17px" height="22px" viewBox="0 0 17 22" version="1.1" xmlns="http://www.w3.org/2000/svg" xmlns:xlink="http://www.w3.org/1999/xlink">
    <!-- Generator: Sketch 42 (36781) - http://www.bohemiancoding.com/sketch -->
    <title>Group 10</title>
    <desc>Created with Sketch.</desc>
    <defs></defs>
    <g id="Page-1" stroke="none" stroke-width="1" fill="none" fill-rule="evenodd">
        <g id="Dashboard" transform="translate(-1123.000000, -256.000000)" fill-rule="nonzero" fill="#CCCCCC">
            <g id="Group-7" transform="translate(1064.000000, 54.000000)">
                <g id="Group-10" transform="translate(59.000000, 202.000000)">
                    <g id="M&amp;G">
                        <g id="Group">
                            <path d="M12.455102,13.0952381 C12.1428571,12.8507937 11.9,12.5365079 11.6918367,12.1873016 C13.9122449,12.5015873 15.1265306,10.3714286 15.1265306,10.3714286 L14.2591837,6.63492063 C14.155102,6.18095238 14.0857143,5.72698413 14.0163265,5.0984127 C13.7040816,2.3047619 11.3102041,0.174603175 8.5,0.174603175 C5.68979592,0.174603175 3.29591837,2.3047619 2.98367347,5.0984127 C2.91428571,5.72698413 2.84489796,6.21587302 2.74081633,6.63492063 L1.87346939,10.3714286 C1.87346939,10.3714286 3.12244898,12.4666667 5.30816327,12.1873016 C5.1,12.5365079 4.85714286,12.8507937 4.54489796,13.0952381 C2.11632653,13.1650794 0.173469388,15.1555556 0.173469388,17.6349206 L0.173469388,21.8253968 L16.8265306,21.8253968 L16.8265306,17.6349206 C16.8265306,15.1904762 14.8836735,13.1650794 12.455102,13.0952381 Z M12.5244898,13.7936508 C13.2530612,13.8285714 13.9122449,14.0730159 14.4673469,14.4571429 L12.2469388,17.8095238 L10.8591837,16.5174603 L12.5244898,13.7936508 Z M5.03061224,6.6 C5.03061224,6.18095238 5.1,5.9015873 5.23877551,5.76190476 C5.55102041,5.48253968 6.41836735,5.69206349 6.8,5.72698413 C7.32040816,5.7968254 7.8755102,5.9015873 8.5,5.9015873 C9.1244898,5.9015873 9.67959184,5.83174603 10.2,5.72698413 C10.8938776,5.62222222 11.5183673,5.51746032 11.7612245,5.76190476 C11.9,5.9015873 11.9693878,6.18095238 11.9693878,6.6 C11.9693878,8.52063492 10.4081633,11.4888889 8.5,11.4888889 C6.59183673,11.4888889 5.03061224,8.52063492 5.03061224,6.6 Z M2.63673469,10.1968254 L3.4,6.80952381 C3.50408163,6.35555556 3.57346939,5.83174603 3.67755102,5.2031746 C3.95510204,2.75873016 6.03673469,0.873015873 8.5,0.873015873 C10.9632653,0.873015873 13.044898,2.72380952 13.322449,5.2031746 C13.3918367,5.86666667 13.4959184,6.35555556 13.6,6.80952381 L14.3632653,10.1968254 C14.3632653,10.1968254 13.3918367,11.8730159 11.3795918,11.384127 C11.3102041,11.1746032 11.2755102,10.4761905 11.2755102,10.4761905 C12.1428571,9.32380952 12.6632653,7.78730159 12.6632653,6.56507937 C12.6632653,5.9015873 12.5244898,5.48253968 12.2122449,5.2031746 C11.7265306,4.78412698 10.9632653,4.88888889 10.0959184,5.02857143 C9.61020408,5.0984127 9.05510204,5.16825397 8.5,5.16825397 C7.94489796,5.16825397 7.38979592,5.0984127 6.90408163,5.02857143 C6.03673469,4.88888889 5.27346939,4.78412698 4.7877551,5.2031746 C4.4755102,5.48253968 4.33673469,5.93650794 4.33673469,6.56507937 C4.33673469,7.75238095 4.85714286,9.28888889 5.7244898,10.4761905 C5.7244898,10.4761905 5.68979592,11.1396825 5.62040816,11.384127 C3.74693878,11.9428571 2.63673469,10.1968254 2.63673469,10.1968254 Z M6.38367347,11.2095238 C7.00816327,11.8031746 7.73673469,12.152381 8.5,12.152381 C9.29795918,12.152381 10.0265306,11.768254 10.6163265,11.2095238 C10.755102,12.0825397 11.1714286,12.9206349 11.8653061,13.5142857 L8.5,19.0666667 L5.13469388,13.5142857 C5.79387755,12.9206349 6.24489796,12.1174603 6.38367347,11.2095238 Z M6.14081633,16.5174603 L4.75306122,17.8095238 L2.53265306,14.4571429 C3.0877551,14.0730159 3.74693878,13.8285714 4.4755102,13.7936508 L6.14081633,16.5174603 Z M16.1326531,21.1269841 L0.867346939,21.1269841 L0.867346939,17.6349206 C0.867346939,16.552381 1.31836735,15.6095238 2.0122449,14.9111111 L4.61428571,18.8571429 L6.52244898,17.1111111 L8.5,20.3936508 L10.477551,17.1111111 L12.3857143,18.8571429 L14.9877551,14.9111111 C15.6816327,15.6095238 16.1326531,16.5873016 16.1326531,17.6349206 L16.1326531,21.1269841 Z" id="Shape"></path>
                        </g>
                    </g>
                </g>
            </g>
        </g>
    </g>
</svg>