<?xml version="1.0" encoding="UTF-8"?>
<svg width="18px" height="18px" viewBox="0 0 18 18" version="1.1" xmlns="http://www.w3.org/2000/svg" xmlns:xlink="http://www.w3.org/1999/xlink">
    <!-- Generator: Sketch 42 (36781) - http://www.bohemiancoding.com/sketch -->
    <title>Group 9</title>
    <desc>Created with Sketch.</desc>
    <defs></defs>
    <g id="Page-1" stroke="none" stroke-width="1" fill="none" fill-rule="evenodd">
        <g id="Create-NEwGroup" transform="translate(-112.000000, -398.000000)" fill-rule="nonzero" fill="#FFFFFF">
            <g id="Group-7" transform="translate(52.000000, 234.000000)">
                <g id="Group-9" transform="translate(60.000000, 164.000000)">
                    <g id="noun_114960_cc">
                        <g id="Group">
                            <g id="Shape">
                                <path d="M17.4461538,2.04 L15.7648352,0.34 C15.5472527,0.12 15.2505495,0 14.9340659,0 C14.6175824,0 14.3208791,0.12 14.1032967,0.36 L13.2527473,1.2 L13.2527473,1.2 L4.86593407,9.68 L4.86593407,9.68 L3.87692308,13.04 C3.77802198,13.34 3.81758242,13.64 3.97582418,13.84 C4.11428571,14.02 4.33186813,14.12 4.58901099,14.12 C4.68791209,14.12 4.80659341,14.1 4.90549451,14.06 L8.22857143,13.06 L8.24835165,13.08 L16.0813187,5.16 L16.0813187,5.16 L17.4857143,3.74 C17.7032967,3.52 17.8417582,3.22 17.8417582,2.9 C17.8021978,2.58 17.6835165,2.28 17.4461538,2.04 Z M5.75604396,12.98 L4.96483516,12.18 L5.43956044,10.56 L7.35824176,12.5 L5.75604396,12.98 Z M8.22857143,11.94 L5.99340659,9.68 L13.2527473,2.34 L14.3802198,3.48 L15.5076923,4.62 L8.22857143,11.94 Z M16.8923077,3.18 L16.0615385,4.02 L14.9340659,2.88 L13.8065934,1.74 L14.6373626,0.9 C14.7956044,0.74 15.0527473,0.74 15.1912088,0.9 L16.8725275,2.6 C16.9516484,2.68 16.9912088,2.78 16.9912088,2.88 C17.010989,3 16.9714286,3.1 16.8923077,3.18 Z"></path>
                                <path d="M12.5208791,3.86 L7.4967033,8.94 C7.33846154,9.1 7.33846154,9.34 7.4967033,9.5 C7.65494505,9.66 7.89230769,9.66 8.05054945,9.5 L13.0945055,4.4 C13.2527473,4.24 13.2527473,4 13.0945055,3.84 C12.9362637,3.7 12.6791209,3.7 12.5208791,3.86 Z"></path>
                                <path d="M12.6,16.4 C12.6,16.84 12.243956,17.2 11.8087912,17.2 L1.58241758,17.2 C1.14725275,17.2 0.791208791,16.84 0.791208791,16.4 L0.791208791,6.06 C0.791208791,5.62 1.14725275,5.26 1.58241758,5.26 L6.70549451,5.26 L6.70549451,4.46 L1.58241758,4.46 C0.712087912,4.46 0,5.18 0,6.06 L0,16.4 C0,17.28 0.712087912,18 1.58241758,18 L11.8087912,18 C12.6791209,18 13.3912088,17.28 13.3912088,16.4 L13.3912088,11.28 L12.6,11.28 L12.6,16.4 Z"></path>
                            </g>
                        </g>
                    </g>
                </g>
            </g>
        </g>
    </g>
</svg>