<?xml version="1.0" encoding="UTF-8"?>
<svg width="16px" height="22px" viewBox="0 0 16 22" version="1.1" xmlns="http://www.w3.org/2000/svg" xmlns:xlink="http://www.w3.org/1999/xlink">
    <!-- Generator: Sketch 42 (36781) - http://www.bohemiancoding.com/sketch -->
    <title>Group 7</title>
    <desc>Created with Sketch.</desc>
    <defs></defs>
    <g id="Page-1" stroke="none" stroke-width="1" fill="none" fill-rule="evenodd">
        <g id="Dashboard-Select" transform="translate(-131.000000, -433.000000)" fill-rule="nonzero" fill="#333333">
            <g id="Group-7" transform="translate(131.000000, 433.000000)">
                <g id="noun_700331_cc">
                    <g id="Group">
                        <g>
                            <path d="M15.7666667,5.33333333 C15.7666667,3.73333333 14.6,2.53333333 12.9666667,2.53333333 L12.6333333,2.53333333 L12.6333333,3.33333333 L12.7,3.33333333 L12.9,3.33333333 C13.1333333,3.33333333 13.4,3.33333333 13.7,3.43333333 C14.5,3.7 14.9666667,4.4 14.9666667,5.3 L14.9666667,11.1333333 L14.9666667,13.3666667 L14.9666667,13.9666667 L14.9666667,18.3333333 C14.9666667,18.8666667 14.8,19.3333333 14.4333333,19.7333333 C14.0666667,20.1333333 13.5333333,20.3333333 12.9666667,20.3333333 L8.6,20.3333333 L3.06666667,20.3333333 C1.9,20.3333333 1.06666667,19.5333333 1.06666667,18.3333333 L1.06666667,5.53333333 C1.06666667,5.23333333 1.06666667,4.9 1.16666667,4.63333333 C1.4,3.86666667 1.96666667,3.43333333 2.73333333,3.33333333 C2.9,3.3 3.1,3.3 3.36666667,3.3 L3.4,3.3 L3.4,2.53333333 L2.93333333,2.53333333 C2.73333333,2.53333333 2.53333333,2.56666667 2.36666667,2.6 C1.1,2.9 0.266666667,3.96666667 0.266666667,5.26666667 L0.266666667,11.9 L0.266666667,18.4666667 C0.266666667,18.7 0.3,18.9666667 0.366666667,19.2333333 C0.6,20.1666667 1.53333333,21.1666667 2.96666667,21.1666667 L2.96666667,21.1666667 L3.03333333,21.1666667 L4.33333333,21.1666667 L5.33333333,21.1666667 L6.33333333,21.1666667 L6.93333333,21.1666667 L9.9,21.1666667 L13.2333333,21.1666667 C14.5,21.1666667 15.6333333,20.0666667 15.7333333,18.8 C15.7666667,18.1666667 15.7666667,16.1666667 15.7666667,15.5333333 L15.7666667,14.0666667 L15.7666667,5.33333333 Z" id="Shape"></path>
                            <path d="M4.7,3.86666667 L11.3666667,3.86666667 C11.6666667,3.86666667 11.8,3.73333333 11.8,3.43333333 L11.8,2.63333333 C11.8,2 11.7666667,1.93333333 11.1,1.96666667 C10.6,1.96666667 10.1666667,1.86666667 9.8,1.53333333 C9.56666667,1.3 9.4,1.03333333 9.23333333,0.733333333 C9,0.366666667 8.7,0.166666667 8.26666667,0.166666667 L7.63333333,0.166666667 C7.26666667,0.166666667 6.96666667,0.333333333 6.8,0.666666667 C6.7,0.8 6.63333333,0.966666667 6.53333333,1.1 C6.3,1.53333333 5.9,1.8 5.43333333,1.9 C5.16666667,1.96666667 4.86666667,1.93333333 4.6,1.93333333 C4.33333333,1.93333333 4.2,2.06666667 4.2,2.33333333 L4.2,3.36666667 C4.2,3.76666667 4.33333333,3.86666667 4.7,3.86666667 Z M5.03333333,2.76666667 C5.2,2.76666667 5.4,2.76666667 5.6,2.7 C6.3,2.56666667 6.9,2.13333333 7.26666667,1.5 C7.3,1.46666667 7.33333333,1.4 7.36666667,1.33333333 C7.4,1.26666667 7.46666667,1.16666667 7.5,1.1 C7.56666667,1.03333333 7.56666667,1 7.66666667,1 L7.83333333,1 L8.13333333,1 L8.33333333,1 C8.4,1 8.46666667,1 8.56666667,1.16666667 L8.6,1.2 C8.76666667,1.5 8.96666667,1.83333333 9.26666667,2.13333333 C9.7,2.56666667 10.3,2.8 11,2.8 L11,3.03333333 L5.03333333,3.03333333 L5.03333333,2.76666667 Z" id="Shape"></path>
                            <path d="M12.5333333,6.3 C12.3333333,6 12,5.8 11.6333333,5.73333333 C11.5666667,5.73333333 11.4666667,5.7 11.4,5.7 C10.7,5.7 10.1333333,6.2 10.0333333,6.86666667 C10,7.16666667 10.0333333,7.46666667 10.1666667,7.73333333 L10.1666667,7.73333333 C9.46666667,8.53333333 8.8,9.33333333 8.06666667,10.1666667 C8.06666667,10.1666667 8.06666667,10.1666667 8.06666667,10.2 C7.96666667,10.1333333 7.83333333,10.1 7.7,10.1 C7.43333333,10.0666667 7.16666667,10.1 6.93333333,10.2 C6.56666667,9.8 6.16666667,9.4 5.83333333,9.03333333 C5.9,8.9 5.93333333,8.76666667 5.96666667,8.63333333 C6.03333333,8.26666667 5.93333333,7.9 5.73333333,7.6 C5.5,7.3 5.2,7.1 4.83333333,7.03333333 C4.76666667,7.03333333 4.66666667,7 4.6,7 C3.9,7 3.33333333,7.5 3.23333333,8.16666667 C3.2,8.36666667 3.2,8.56666667 3.26666667,8.76666667 C3.33333333,8.93333333 3.4,9.13333333 3.53333333,9.26666667 C3.73333333,9.53333333 4.03333333,9.7 4.36666667,9.76666667 C4.63333333,9.8 4.93333333,9.76666667 5.2,9.66666667 C5.36666667,9.86666667 5.56666667,10.0333333 5.73333333,10.2333333 L5.76666667,10.2666667 C5.93333333,10.4333333 6.1,10.6333333 6.26666667,10.8 C6.2,10.9333333 6.13333333,11.1 6.1,11.2666667 C6.03333333,11.6333333 6.1,12 6.33333333,12.3333333 C6.56666667,12.6333333 6.86666667,12.8333333 7.23333333,12.9 C7.3,12.9 7.4,12.9333333 7.46666667,12.9333333 L7.46666667,12.9333333 C8.16666667,12.9333333 8.73333333,12.4333333 8.83333333,11.7666667 C8.86666667,11.4666667 8.83333333,11.1666667 8.7,10.9 C9.36666667,10.1 10.1,9.26666667 10.8333333,8.43333333 C10.9333333,8.46666667 11.0666667,8.53333333 11.1666667,8.53333333 C11.2333333,8.53333333 11.3333333,8.56666667 11.4,8.56666667 C11.8333333,8.56666667 12.2666667,8.36666667 12.5333333,8 C12.6666667,7.83333333 12.7333333,7.63333333 12.7666667,7.43333333 L12.7666667,7.4 C12.8333333,7 12.7666667,6.6 12.5333333,6.3 Z M6.93333333,11.8666667 C6.83333333,11.7333333 6.76666667,11.5333333 6.8,11.3666667 C6.83333333,11.0666667 7.13333333,10.8333333 7.43333333,10.8333333 L7.43333333,10.8333333 L7.53333333,10.8333333 C7.9,10.9 8.13333333,11.2 8.06666667,11.5666667 C8,11.9333333 7.7,12.1666667 7.33333333,12.1333333 C7.2,12.1333333 7.03333333,12.0333333 6.93333333,11.8666667 Z M12.0666667,7.23333333 C12,7.6 11.7,7.83333333 11.3333333,7.8 C11.1666667,7.76666667 11,7.66666667 10.9,7.53333333 C10.8,7.4 10.7333333,7.2 10.7666667,7.03333333 C10.8,6.73333333 11.1,6.5 11.4,6.5 L11.4,6.5 L11.5,6.5 C11.8666667,6.56666667 12.1,6.86666667 12.0666667,7.23333333 Z M5.23333333,8.5 C5.16666667,8.86666667 4.86666667,9.1 4.5,9.06666667 C4.33333333,9.03333333 4.16666667,8.93333333 4.06666667,8.8 C3.96666667,8.66666667 3.9,8.46666667 3.93333333,8.3 C3.96666667,8 4.26666667,7.76666667 4.56666667,7.76666667 L4.56666667,7.76666667 L4.66666667,7.76666667 C5.06666667,7.83333333 5.26666667,8.13333333 5.23333333,8.5 Z" id="Shape"></path>
                            <rect id="Rectangle-path" x="2.83333333" y="14.8333333" width="2.43333333" height="0.833333333"></rect>
                            <rect id="Rectangle-path" x="5.93333333" y="14.8333333" width="7.06666667" height="0.833333333"></rect>
                            <rect id="Rectangle-path" x="2.83333333" y="17.1" width="6.66666667" height="0.833333333"></rect>
                            <rect id="Rectangle-path" x="10.1666667" y="17.1" width="2.8" height="0.833333333"></rect>
                        </g>
                    </g>
                </g>
            </g>
        </g>
    </g>
</svg>