<?xml version="1.0" encoding="UTF-8"?>
<svg width="17px" height="17px" viewBox="0 0 17 17" version="1.1" xmlns="http://www.w3.org/2000/svg" xmlns:xlink="http://www.w3.org/1999/xlink">
    <!-- Generator: Sketch 42 (36781) - http://www.bohemiancoding.com/sketch -->
    <title>Group 10</title>
    <desc>Created with Sketch.</desc>
    <defs></defs>
    <g id="Page-1" stroke="none" stroke-width="1" fill="none" fill-rule="evenodd">
        <g id="Dashboard-Select" transform="translate(-769.000000, -436.000000)" fill-rule="nonzero" fill="#333333">
            <g id="Group-10" transform="translate(769.000000, 436.000000)">
                <g id="noun_756752_cc">
                    <g id="Group">
                        <g id="Shape">
                            <path d="M8.5,9.615625 C7.8625,9.615625 7.11875,9.1640625 6.5078125,8.4203125 C6.0296875,7.809375 5.684375,7.065625 5.4984375,6.26875 C5.4453125,5.9765625 5.1796875,5.7375 4.8609375,5.7375 C4.4359375,5.7375 4.14375,6.1359375 4.2234375,6.534375 C4.8078125,9.190625 6.7203125,10.9171875 8.4734375,10.9171875 C10.571875,10.9171875 12.909375,8.446875 12.909375,4.9140625 C12.909375,2.0453125 11.0765625,0.053125 8.4734375,0.053125 C6.428125,0.053125 4.8875,1.275 4.303125,3.1609375 C4.1703125,3.559375 4.4890625,3.984375 4.9140625,3.984375 L4.940625,3.984375 C5.2328125,3.984375 5.471875,3.7984375 5.5515625,3.5328125 C5.9765625,2.2046875 7.0390625,1.38125 8.4734375,1.38125 C10.3328125,1.38125 11.6078125,2.815625 11.6078125,4.940625 C11.634375,7.809375 9.775,9.615625 8.5,9.615625 Z"></path>
                            <path d="M15.8046875,11.7671875 C14.875,10.7046875 13.5203125,10.146875 11.740625,10.146875 C11.3953125,10.146875 11.103125,10.359375 11.0234375,10.678125 C10.9171875,11.1296875 11.2625,11.528125 11.7140625,11.528125 C13.0953125,11.528125 14.1046875,11.9 14.7421875,12.6703125 C15.5125,13.546875 15.61875,14.7953125 15.61875,15.5390625 L6.1625,15.5390625 C5.7640625,15.5390625 5.471875,15.8578125 5.471875,16.2296875 C5.471875,16.6015625 5.790625,16.9203125 6.1625,16.9203125 L16.840625,16.9203125 L16.946875,16.3359375 C16.946875,16.2296875 17.3453125,13.6 15.8046875,11.7671875 Z"></path>
                            <path d="M5.3125,11.528125 C5.7375,11.528125 6.0828125,11.1296875 6.003125,10.678125 C5.9234375,10.359375 5.63125,10.1203125 5.2859375,10.146875 C3.50625,10.146875 2.125,10.7046875 1.221875,11.7671875 C-0.3453125,13.6 0.053125,16.2296875 0.0796875,16.3359375 L0.1859375,16.9203125 L3.028125,16.9203125 C3.4265625,16.9203125 3.71875,16.6015625 3.71875,16.2296875 C3.71875,15.8578125 3.4,15.5390625 3.028125,15.5390625 L1.434375,15.5390625 C1.434375,14.7953125 1.540625,13.5734375 2.3109375,12.6703125 C2.921875,11.9265625 3.93125,11.528125 5.3125,11.528125 Z"></path>
                        </g>
                    </g>
                </g>
            </g>
        </g>
    </g>
</svg>