<?xml version="1.0" encoding="UTF-8"?>
<svg width="21px" height="22px" viewBox="0 0 21 22" version="1.1" xmlns="http://www.w3.org/2000/svg" xmlns:xlink="http://www.w3.org/1999/xlink">
    <!-- Generator: Sketch 42 (36781) - http://www.bohemiancoding.com/sketch -->
    <title>Group 9</title>
    <desc>Created with Sketch.</desc>
    <defs></defs>
    <g id="Page-1" stroke="none" stroke-width="1" fill="none" fill-rule="evenodd">
        <g id="Dashboard" transform="translate(-1121.000000, -196.000000)" fill-rule="nonzero" fill="#CCCCCC">
            <g id="Group-9" transform="translate(1121.000000, 196.000000)">
                <g id="noun_954289_cc">
                    <g id="Group">
                        <g>
                            <g>
                                <polygon id="Shape" points="21 14.9701195 12.3764815 13.0949288 12.5610627 12.234728 20.125 13.8795793 20.125 12.8805164 12.3897378 6.8526487 12.9255003 6.15700857 21 12.4491404"></polygon>
                                <polygon id="Shape" points="3.06245056e-07 14.9701195 3.06245056e-07 12.4491404 8.07454397 6.15700857 8.61030638 6.8526487 0.875000219 12.8805164 0.875000219 13.8795793 8.43898151 12.234728 8.62356267 13.0949288"></polygon>
                                <path d="M6.125,21.6551707 L6.125,19.4979397 L8.59665621,17.4405876 L7.60970022,3.4503927 C7.55671919,2.63551262 7.83230044,1.86076066 8.38556246,1.26649675 C8.93116901,0.680856748 9.70191263,0.344828748 10.5,0.344828748 C11.2981316,0.344828748 12.0688752,0.680856748 12.6144376,1.2664967 C13.167743,1.8607607 13.443325,2.63551266 13.3907805,3.44801635 L12.4033872,17.4408074 L14.875,19.4977199 L14.875,21.6549509 L10.7315691,20.1255118 C10.5709187,20.1474225 10.412019,20.1484799 10.2573184,20.1287227 L6.125,21.6551707 Z M10.8093562,19.2169107 L14,20.3947026 L14,19.9119353 L11.4985058,17.8301195 L12.5178808,3.38808844 C12.5541934,2.82348075 12.361956,2.2827207 11.9757314,1.86806325 C11.5895059,1.4532327 11.0652499,1.22482875 10.5,1.22482875 C9.93475009,1.22482875 9.4105375,1.45323275 9.02431285,1.8680633 C8.63809074,2.28272075 8.4458066,2.82348079 8.48255647,3.39046352 L9.50153759,17.8299005 L7,19.9117154 L7,20.3944827 L10.1894188,19.2162947 L10.3197063,19.2491625 C10.4261065,19.2701953 10.5525914,19.2686998 10.6884314,19.2411998 L10.8093562,19.2169107 Z" id="Shape"></path>
                                <polygon id="Shape" points="3.5 10.4648284 2.625 10.4648284 2.625 7.3848284 5.25 7.3848284 5.25 9.25570879 4.375 9.25570879 4.375 8.2648284 3.5 8.2648284"></polygon>
                                <polygon id="Shape" points="18.375 10.4648284 17.5 10.4648284 17.5 8.2648284 16.625 8.2648284 16.625 9.25570879 15.75 9.25570879 15.75 7.3848284 18.375 7.3848284"></polygon>
                                <rect id="Rectangle-path" x="10.0625" y="16.6248276" width="0.875" height="4.4"></rect>
                            </g>
                            <rect id="Rectangle-path" x="9.625" y="2.98482862" width="1.75" height="0.88"></rect>
                        </g>
                    </g>
                </g>
            </g>
        </g>
    </g>
</svg>