<?xml version="1.0" encoding="UTF-8"?>
<svg width="35px" height="35px" viewBox="0 0 35 35" version="1.1" xmlns="http://www.w3.org/2000/svg" xmlns:xlink="http://www.w3.org/1999/xlink">
    <!-- Generator: Sketch 42 (36781) - http://www.bohemiancoding.com/sketch -->
    <title>Group 21</title>
    <desc>Created with Sketch.</desc>
    <defs></defs>
    <g id="Page-1" stroke="none" stroke-width="1" fill="none" fill-rule="evenodd">
        <g id="Create-NEwGroup" transform="translate(-251.000000, -356.000000)">
            <g id="Group-11" transform="translate(240.000000, 345.000000)">
                <g id="Group-21" transform="translate(11.000000, 11.000000)">
                    <ellipse id="Oval-3" fill="#BA68C8" cx="17.5" cy="17.5" rx="17.5" ry="17.5"></ellipse>
                    <g id="noun_773318_cc-(1)" transform="translate(7.000000, 7.000000)" fill-rule="nonzero" fill="#FFFFFF">
                        <g id="Group">
                            <path d="M16.6701585,11.0529146 C16.7482683,10.9077073 16.7313659,10.7251098 16.6086951,10.6021829 L16.4097073,10.402939 C16.2596341,10.2528659 16.0165976,10.253122 15.8665244,10.402939 C15.7164512,10.5527561 15.7164512,10.7960488 15.8665244,10.946378 L16.0655122,11.145622 C16.1405488,11.2206585 16.2388902,11.2580488 16.3372317,11.2580488 C16.3782073,11.2580488 16.4184146,11.2475488 16.4578537,11.2344878 L7.72364634,19.9686951 C7.63836585,20.0539756 7.49418293,20.0488537 7.40352439,19.9581951 L6.19397561,18.7483902 C7.02808537,17.6461463 6.94306098,16.0644878 5.93967073,15.0608415 C4.9352561,14.0559146 3.35334146,13.9708902 2.25160976,14.8062805 L1.04206098,13.5967317 C0.995707317,13.5506341 0.970353659,13.4901951 0.970353659,13.426939 C0.970353659,13.3693171 0.992121951,13.3160488 1.03156098,13.2766098 L9.88639024,4.42280488 C10.0364634,4.2729878 10.0364634,4.02969512 9.88639024,3.87962195 C9.73631707,3.72954878 9.49328049,3.72954878 9.34320732,3.87962195 L0.488634146,12.7334268 C0.303987805,12.9178171 0.202317073,13.1641829 0.202060976,13.426939 C0.202060976,13.6955854 0.307573171,13.949122 0.498878049,14.1401707 L1.96119512,15.6024878 C2.11126829,15.752561 2.35404878,15.752561 2.50412195,15.6027439 C3.30212195,14.8060244 4.5992561,14.8065366 5.39623171,15.6040244 C6.19269512,16.4004878 6.19320732,17.697878 5.3975122,18.495878 C5.24795122,18.6459512 5.24820732,18.8889878 5.39802439,19.0388049 L6.86059756,20.5016341 C7.05804878,20.6985732 7.31619512,20.7971707 7.57331707,20.7971707 C7.82531707,20.7971707 8.07629268,20.7021585 8.26682927,20.511878 L17.1206341,11.657561 C17.2707073,11.5074878 17.2707073,11.2641951 17.1206341,11.114378 C16.9979634,10.9917073 16.815622,10.9748049 16.6701585,11.0529146 Z M20.5018902,6.85982927 L19.0395732,5.3972561 C18.8895,5.24718293 18.6464634,5.24743902 18.4963902,5.3972561 C18.109939,5.78370732 17.5959512,5.99652439 17.0499512,5.99652439 C16.503439,5.99652439 15.9899634,5.78370732 15.6037683,5.3975122 C14.8065366,4.60002439 14.8062805,3.30237805 15.6035122,2.50463415 C15.7533293,2.35481707 15.7533293,2.11152439 15.6032561,1.96145122 L14.1406829,0.498878049 C13.9529634,0.310902439 13.7040366,0.205646341 13.4402561,0.202317073 L13.4271951,0.202317073 C13.1646951,0.202317073 12.9188415,0.303731707 12.7341951,0.488634146 L9.93991463,3.28189024 C9.78984146,3.43170732 9.78984146,3.6752561 9.93991463,3.82507317 C10.0899878,3.97514634 10.3330244,3.97514634 10.4830976,3.82507317 L13.277122,1.03104878 C13.3306463,0.977268293 13.3962073,0.965487805 13.4300122,0.970097561 C13.4922439,0.970865854 13.5516585,0.996219512 13.5969878,1.04154878 L14.8065366,2.25109756 C13.9706341,3.35334146 14.0551463,4.9355122 15.0600732,5.94018293 C15.5912195,6.47158537 16.2977927,6.76430488 17.0496951,6.76430488 C17.6717561,6.76430488 18.2628293,6.56378049 18.7496707,6.19346341 L19.9587073,7.4027561 C20.049622,7.49392683 20.0544878,7.63759756 19.9692073,7.72313415 L17.1751829,10.5171585 C17.0251098,10.6669756 17.0251098,10.9105244 17.1751829,11.0603415 C17.2502195,11.135378 17.348561,11.1727683 17.4469024,11.1727683 C17.5452439,11.1727683 17.6435854,11.135378 17.718622,11.0603415 L20.5126463,8.26631707 C20.8973049,7.88140244 20.892439,7.25037805 20.5018902,6.85982927 Z M12.353122,7.27393902 C12.4514634,7.27393902 12.5498049,7.23654878 12.6248415,7.1615122 C12.7749146,7.01169512 12.7749146,6.76840244 12.6248415,6.61807317 L12.4258537,6.41882927 C12.2757805,6.2687561 12.0327439,6.2690122 11.8826707,6.41882927 C11.7325976,6.56864634 11.7325976,6.81193902 11.8826707,6.96226829 L12.0816585,7.1615122 C12.1566951,7.23629268 12.2550366,7.27393902 12.353122,7.27393902 Z M11.0856951,6.16529268 C11.1607317,6.24032927 11.2590732,6.27771951 11.3574146,6.27771951 C11.4557561,6.27771951 11.5540976,6.24032927 11.6291341,6.16529268 C11.7792073,6.01547561 11.7792073,5.77218293 11.6291341,5.62185366 L11.4301463,5.42260976 C11.2800732,5.27253659 11.0370366,5.27279268 10.8869634,5.42260976 C10.7368902,5.57242683 10.7368902,5.81571951 10.8869634,5.96604878 L11.0856951,6.16529268 Z M10.4336707,4.42664634 C10.2835976,4.27682927 10.0400488,4.27682927 9.8904878,4.42664634 C9.74041463,4.57671951 9.74041463,4.8200122 9.8904878,4.97008537 L10.0897317,5.16932927 C10.1647683,5.24410976 10.2631098,5.2817561 10.3614512,5.2817561 C10.4597927,5.2817561 10.5583902,5.24436585 10.6331707,5.16932927 C10.7832439,5.0192561 10.7832439,4.77596341 10.6331707,4.62589024 L10.4336707,4.42664634 Z M15.3410122,10.2620854 C15.4393537,10.2620854 15.5379512,10.2246951 15.6127317,10.1496585 C15.7628049,9.99958537 15.7628049,9.75629268 15.6127317,9.60621951 L15.4134878,9.40697561 C15.2634146,9.25715854 15.0198659,9.25715854 14.8703049,9.40697561 C14.7202317,9.55704878 14.7202317,9.80034146 14.8703049,9.95041463 L15.0695488,10.1496585 C15.1445854,10.224439 15.2429268,10.2620854 15.3410122,10.2620854 Z M14.3453049,9.26586585 C14.4436463,9.26586585 14.5422439,9.22847561 14.6170244,9.15343902 C14.7670976,9.00336585 14.7670976,8.76007317 14.6170244,8.61 L14.4177805,8.4107561 C14.2677073,8.26093902 14.0241585,8.26093902 13.8745976,8.4107561 C13.7245244,8.56082927 13.7245244,8.80412195 13.8745976,8.95419512 L14.0738415,9.15343902 C14.148622,9.22847561 14.2469634,9.26586585 14.3453049,9.26586585 Z M13.0773659,8.15747561 C13.1524024,8.2325122 13.2507439,8.26990244 13.3490854,8.26990244 C13.4474268,8.26990244 13.5457683,8.2325122 13.6208049,8.15747561 C13.770878,8.00765854 13.770878,7.76436585 13.6208049,7.61403659 L13.4218171,7.41479268 C13.2717439,7.26471951 13.0287073,7.26497561 12.8786341,7.41479268 C12.728561,7.56460976 12.728561,7.80790244 12.8786341,7.95823171 L13.0773659,8.15747561 Z M7.62197561,10.9246098 C7.62197561,11.1369146 7.79407317,11.3087561 8.00612195,11.3087561 L8.90989024,11.3087561 L7.14896341,12.413561 L6.1850122,11.8788293 C5.99934146,11.775878 5.76526829,11.8427195 5.66282927,12.0283902 C5.55987805,12.2138049 5.62671951,12.447622 5.81239024,12.5505732 L6.97456098,13.1954268 C7.03269512,13.2276951 7.09697561,13.2435732 7.161,13.2435732 C7.23193902,13.2435732 7.30287805,13.2238537 7.36510976,13.1849268 L9.7122439,11.7121098 L9.42387805,13.3083659 C9.3864878,13.5170854 9.52503659,13.7168415 9.7337561,13.7547439 C9.75680488,13.7588415 9.77985366,13.7608902 9.80264634,13.7608902 C9.98473171,13.7608902 10.1465854,13.6305366 10.1803902,13.4448659 L10.5934756,11.1591951 L11.8724268,10.3565854 C12.0522073,10.2439024 12.1065,10.0067561 11.9938171,9.82697561 C11.8811341,9.64719512 11.6437317,9.59290244 11.4644634,9.70584146 L10.1348049,10.5402073 L8.00637805,10.5402073 C7.79407317,10.5404634 7.62197561,10.712561 7.62197561,10.9246098 Z" id="Shape"></path>
                        </g>
                    </g>
                </g>
            </g>
        </g>
    </g>
</svg>