<?xml version="1.0" encoding="UTF-8"?>
<svg width="90px" height="90px" viewBox="0 0 90 90" version="1.1" xmlns="http://www.w3.org/2000/svg" xmlns:xlink="http://www.w3.org/1999/xlink">
    <!-- Generator: Sketch 42 (36781) - http://www.bohemiancoding.com/sketch -->
    <title>Group 2</title>
    <desc>Created with Sketch.</desc>
    <defs>
        <circle id="path-1" cx="35" cy="35" r="35"></circle>
        <filter x="-50%" y="-50%" width="200%" height="200%" filterUnits="objectBoundingBox" id="filter-2">
            <feOffset dx="0" dy="2" in="SourceAlpha" result="shadowOffsetOuter1"></feOffset>
            <feGaussianBlur stdDeviation="5" in="shadowOffsetOuter1" result="shadowBlurOuter1"></feGaussianBlur>
            <feColorMatrix values="0 0 0 0 0   0 0 0 0 0   0 0 0 0 0  0 0 0 0.284759964 0" type="matrix" in="shadowBlurOuter1"></feColorMatrix>
        </filter>
    </defs>
    <g id="Page-1" stroke="none" stroke-width="1" fill="none" fill-rule="evenodd">
        <g id="Dashboard" transform="translate(-104.000000, -647.000000)">
            <g id="Group-2" transform="translate(114.000000, 655.000000)">
                <g id="Oval-3">
                    <use fill="black" fill-opacity="1" filter="url(#filter-2)" xlink:href="#path-1"></use>
                    <use fill="#BA68C8" fill-rule="evenodd" xlink:href="#path-1"></use>
                </g>
                <g id="noun_773318_cc-(1)" transform="translate(16.000000, 16.000000)" fill-rule="nonzero" fill="#FFFFFF">
                    <g id="Group">
                        <path d="M30.1650488,20.0005122 C30.3063902,19.7377561 30.2758049,19.4073415 30.0538293,19.1849024 L29.6937561,18.8243659 C29.4221951,18.5528049 28.9824146,18.5532683 28.7108537,18.8243659 C28.4392927,19.0954634 28.4392927,19.5357073 28.7108537,19.8077317 L29.0709268,20.1682683 C29.2067073,20.3040488 29.3846585,20.3717073 29.5626098,20.3717073 C29.6367561,20.3717073 29.7095122,20.3527073 29.780878,20.3290732 L13.976122,36.1338293 C13.8218049,36.2881463 13.5609024,36.278878 13.3968537,36.1148293 L11.2081463,33.9256585 C12.7174878,31.931122 12.5636341,29.0690732 10.7479756,27.2529512 C8.93046341,25.4345122 6.06795122,25.2806585 4.07434146,26.7923171 L1.88563415,24.6036098 C1.8017561,24.5201951 1.75587805,24.4108293 1.75587805,24.2963659 C1.75587805,24.1920976 1.79526829,24.0957073 1.86663415,24.0243415 L17.8896585,8.00317073 C18.1612195,7.73207317 18.1612195,7.29182927 17.8896585,7.02026829 C17.6180976,6.74870732 17.1783171,6.74870732 16.9067561,7.02026829 L0.884195122,23.041439 C0.550073171,23.3750976 0.366097561,23.8209024 0.365634146,24.2963659 C0.365634146,24.7824878 0.556560976,25.2412683 0.902731707,25.5869756 L3.54882927,28.2330732 C3.82039024,28.5046341 4.25970732,28.5046341 4.53126829,28.2335366 C5.97526829,26.7918537 8.32246341,26.7927805 9.76460976,28.2358537 C11.2058293,29.6770732 11.2067561,32.0247317 9.76692683,33.4687317 C9.49629268,33.7402927 9.4967561,34.1800732 9.76785366,34.4511707 L12.4144146,37.0981951 C12.7717073,37.454561 13.2388293,37.6329756 13.7040976,37.6329756 C14.1600976,37.6329756 14.6142439,37.4610488 14.9590244,37.1167317 L30.9801951,21.0946341 C31.2517561,20.8230732 31.2517561,20.3828293 30.9801951,20.1117317 C30.7582195,19.8897561 30.4282683,19.8591707 30.1650488,20.0005122 Z M37.0986585,12.4130244 L34.452561,9.76646341 C34.181,9.49490244 33.7412195,9.49536585 33.4696585,9.76646341 C32.7703659,10.4657561 31.8402927,10.8508537 30.8522927,10.8508537 C29.8633659,10.8508537 28.9342195,10.4657561 28.2353902,9.76692683 C26.7927805,8.32385366 26.7923171,5.97573171 28.2349268,4.53219512 C28.5060244,4.26109756 28.5060244,3.82085366 28.2344634,3.54929268 L25.5879024,0.902731707 C25.2482195,0.562585366 24.7977805,0.372121951 24.3204634,0.366097561 L24.2968293,0.366097561 C23.8218293,0.366097561 23.3769512,0.549609756 23.0428293,0.884195122 L17.9865122,5.93865854 C17.7149512,6.2097561 17.7149512,6.65046341 17.9865122,6.92156098 C18.2580732,7.19312195 18.6978537,7.19312195 18.9694146,6.92156098 L24.0252683,1.86570732 C24.122122,1.76839024 24.2407561,1.74707317 24.3019268,1.75541463 C24.4145366,1.75680488 24.5220488,1.80268293 24.6040732,1.88470732 L26.7927805,4.07341463 C25.2801951,6.06795122 25.433122,8.93092683 27.251561,10.7489024 C28.2126829,11.7104878 29.4912439,12.2401707 30.8518293,12.2401707 C31.9774634,12.2401707 33.0470244,11.8773171 33.9279756,11.2072195 L36.1157561,13.3954634 C36.2802683,13.560439 36.2890732,13.8204146 36.1347561,13.9751951 L31.0789024,19.0310488 C30.8073415,19.3021463 30.8073415,19.7428537 31.0789024,20.0139512 C31.2146829,20.1497317 31.3926341,20.2173902 31.5705854,20.2173902 C31.7485366,20.2173902 31.9264878,20.1497317 32.0622683,20.0139512 L37.118122,14.9580976 C37.8141707,14.2615854 37.8053659,13.1197317 37.0986585,12.4130244 Z M22.3532683,13.1623659 C22.5312195,13.1623659 22.7091707,13.0947073 22.8449512,12.9589268 C23.1165122,12.6878293 23.1165122,12.2475854 22.8449512,11.975561 L22.484878,11.6150244 C22.2133171,11.3434634 21.7735366,11.3439268 21.5019756,11.6150244 C21.2304146,11.886122 21.2304146,12.3263659 21.5019756,12.5983902 L21.8620488,12.9589268 C21.9978293,13.0942439 22.1757805,13.1623659 22.3532683,13.1623659 Z M20.0598293,11.1562439 C20.1956098,11.2920244 20.373561,11.3596829 20.5515122,11.3596829 C20.7294634,11.3596829 20.9074146,11.2920244 21.0431951,11.1562439 C21.3147561,10.8851463 21.3147561,10.4449024 21.0431951,10.172878 L20.683122,9.81234146 C20.411561,9.54078049 19.9717805,9.5412439 19.7002195,9.81234146 C19.4286585,10.083439 19.4286585,10.5236829 19.7002195,10.7957073 L20.0598293,11.1562439 Z M18.8799756,8.01012195 C18.6084146,7.73902439 18.1677073,7.73902439 17.8970732,8.01012195 C17.6255122,8.28168293 17.6255122,8.72192683 17.8970732,8.9934878 L18.2576098,9.35402439 C18.3933902,9.48934146 18.5713415,9.55746341 18.7492927,9.55746341 C18.9272439,9.55746341 19.1056585,9.48980488 19.2409756,9.35402439 C19.5125366,9.08246341 19.5125366,8.64221951 19.2409756,8.37065854 L18.8799756,8.01012195 Z M27.7599268,18.5694878 C27.937878,18.5694878 28.1162927,18.5018293 28.2516098,18.3660488 C28.5231707,18.0944878 28.5231707,17.6542439 28.2516098,17.3826829 L27.8910732,17.0221463 C27.6195122,16.7510488 27.1788049,16.7510488 26.9081707,17.0221463 C26.6366098,17.2937073 26.6366098,17.7339512 26.9081707,18.0055122 L27.2687073,18.3660488 C27.4044878,18.5013659 27.582439,18.5694878 27.7599268,18.5694878 Z M25.9581707,16.7668049 C26.136122,16.7668049 26.3145366,16.6991463 26.4498537,16.5633659 C26.7214146,16.2918049 26.7214146,15.851561 26.4498537,15.58 L26.0893171,15.2194634 C25.8177561,14.9483659 25.3770488,14.9483659 25.1064146,15.2194634 C24.8348537,15.4910244 24.8348537,15.9312683 25.1064146,16.2028293 L25.4669512,16.5633659 C25.6022683,16.6991463 25.7802195,16.7668049 25.9581707,16.7668049 Z M23.6638049,14.7611463 C23.7995854,14.8969268 23.9775366,14.9645854 24.1554878,14.9645854 C24.333439,14.9645854 24.5113902,14.8969268 24.6471707,14.7611463 C24.9187317,14.4900488 24.9187317,14.0498049 24.6471707,13.7777805 L24.2870976,13.4172439 C24.0155366,13.1456829 23.5757561,13.1461463 23.3041951,13.4172439 C23.0326341,13.6883415 23.0326341,14.1285854 23.3041951,14.4006098 L23.6638049,14.7611463 Z M13.7921463,19.7683415 C13.7921463,20.1525122 14.103561,20.4634634 14.4872683,20.4634634 L16.1226585,20.4634634 L12.9362195,22.4626341 L11.1919268,21.4950244 C10.8559512,21.3087317 10.4323902,21.4296829 10.2470244,21.7656585 C10.0607317,22.1011707 10.1816829,22.5242683 10.5176585,22.710561 L12.6206341,23.877439 C12.7258293,23.9358293 12.8421463,23.964561 12.958,23.964561 C13.0863659,23.964561 13.2147317,23.928878 13.3273415,23.858439 L17.5745366,21.1933415 L17.0527317,24.0818049 C16.9850732,24.4594878 17.2357805,24.8209512 17.6134634,24.8895366 C17.6551707,24.8969512 17.696878,24.9006585 17.738122,24.9006585 C18.0676098,24.9006585 18.3604878,24.6647805 18.4216585,24.3288049 L19.1691463,20.1928293 L21.483439,18.7404878 C21.8087561,18.5365854 21.907,18.1074634 21.7030976,17.7821463 C21.4991951,17.4568293 21.0696098,17.3585854 20.7452195,17.5629512 L18.3391707,19.0727561 L14.4877317,19.0727561 C14.103561,19.0732195 13.7921463,19.3846341 13.7921463,19.7683415 Z" id="Shape"></path>
                    </g>
                </g>
            </g>
        </g>
    </g>
</svg>