<?xml version="1.0" encoding="UTF-8"?>
<svg width="37px" height="37px" viewBox="0 0 37 37" version="1.1" xmlns="http://www.w3.org/2000/svg" xmlns:xlink="http://www.w3.org/1999/xlink">
    <!-- Generator: Sketch 42 (36781) - http://www.bohemiancoding.com/sketch -->
    <title>Group 8</title>
    <desc>Created with Sketch.</desc>
    <defs></defs>
    <g id="Page-1" stroke="none" stroke-width="1" fill="none" fill-rule="evenodd">
        <g id="Dashboard-Select" transform="translate(-1122.000000, -132.000000)">
            <g id="Group-5" transform="translate(1123.000000, 133.000000)">
                <g id="Group-8">
                    <circle id="Oval" stroke="#D7DCE6" cx="17.5" cy="17.5" r="17.5"></circle>
                    <path d="M25.4825581,17.7325581 L18.7674419,17.7325581 L18.7674419,11.0174419 C18.7674419,10.4476744 18.3197674,10 17.75,10 C17.1802326,10 16.7325581,10.4476744 16.7325581,11.0174419 L16.7325581,17.7325581 L10.0174419,17.7325581 C9.44767442,17.7325581 9,18.1802326 9,18.75 C9,19.3197674 9.44767442,19.7674419 10.0174419,19.7674419 L16.7325581,19.7674419 L16.7325581,26.4825581 C16.7325581,27.0523256 17.1802326,27.5 17.75,27.5 C18.3197674,27.5 18.7674419,27.0523256 18.7674419,26.4825581 L18.7674419,19.7674419 L25.4825581,19.7674419 C26.0523256,19.7674419 26.5,19.3197674 26.5,18.75 C26.5,18.1802326 26.0523256,17.7325581 25.4825581,17.7325581 Z" id="Shape" fill="#D7DCE6" fill-rule="nonzero"></path>
                </g>
            </g>
        </g>
    </g>
</svg>