<?xml version="1.0" encoding="UTF-8"?>
<svg width="23px" height="25px" viewBox="0 0 23 25" version="1.1" xmlns="http://www.w3.org/2000/svg" xmlns:xlink="http://www.w3.org/1999/xlink">
    <!-- Generator: Sketch 42 (36781) - http://www.bohemiancoding.com/sketch -->
    <title>Group 8</title>
    <desc>Created with Sketch.</desc>
    <defs></defs>
    <g id="Page-1" stroke="none" stroke-width="1" fill="none" fill-rule="evenodd">
        <g id="Dashboard-Select" transform="translate(-1352.000000, -284.000000)" fill-rule="nonzero" fill="#90A4AE">
            <g id="Group-8" transform="translate(1352.000000, 284.000000)">
                <g id="noun_741639_cc">
                    <g id="Group">
                        <path d="M20.6711163,13.3202128 L19.8749419,13.3202128 L19.8749419,6.82739362 L13.7566744,0.0271276596 L3.1197093,0.0271276596 C1.48376744,0.0271276596 0.152709302,1.35053191 0.152709302,2.97712766 L0.152709302,21.7920213 C0.152709302,23.418883 1.48376744,24.7420213 3.1197093,24.7420213 L16.9084767,24.7420213 C18.5444186,24.7420213 19.8749419,23.418883 19.8749419,21.7920213 L19.8749419,21.381117 L20.6711163,21.381117 C21.8213837,21.381117 22.7574302,20.450266 22.7574302,19.306383 L22.7574302,15.3949468 C22.7571628,14.2510638 21.8211163,13.3202128 20.6711163,13.3202128 Z M13.9781163,1.47047872 L18.5762442,6.58111702 L13.9781163,6.58111702 L13.9781163,1.47047872 Z M19.0726163,21.7920213 C19.0726163,22.9789894 18.1020698,23.9441489 16.9084767,23.9441489 L3.1197093,23.9441489 C1.92611628,23.9441489 0.955034884,22.9789894 0.955034884,21.7920213 L0.955034884,2.97712766 C0.955034884,1.79042553 1.92611628,0.825 3.1197093,0.825 L13.1757907,0.825 L13.1757907,7.37898936 L19.0726163,7.37898936 L19.0726163,13.3202128 L10.2769884,13.3202128 C9.12645349,13.3202128 8.19040698,14.2510638 8.19040698,15.3949468 L8.19040698,19.306383 C8.19040698,20.450266 9.12645349,21.381117 10.2769884,21.381117 L19.0726163,21.381117 L19.0726163,21.7920213 Z M21.9548372,19.306383 C21.9548372,20.0101064 21.3787674,20.5832447 20.6708488,20.5832447 L10.2769884,20.5832447 C9.56906977,20.5832447 8.99273256,20.0103723 8.99273256,19.306383 L8.99273256,15.3949468 C8.99273256,14.6912234 9.56880233,14.1180851 10.2769884,14.1180851 L20.6711163,14.1180851 C21.3787674,14.1180851 21.9551047,14.6909574 21.9551047,15.3949468 L21.9551047,19.306383 L21.9548372,19.306383 Z" id="Shape"></path>
                        <polygon id="Shape" points="14.0037907 15.7194149 13.4678372 15.7194149 12.5275116 17.1226064 11.6275698 15.7194149 11.0509651 15.7194149 12.2392093 17.4643617 10.9803605 19.3098404 11.5211279 19.3098404 12.5224302 17.8263298 13.4929767 19.3098404 14.0794767 19.3098404 12.8107326 17.4643617"></polygon>
                        <polygon id="Shape" points="14.9491977 15.7194149 14.4691395 15.7194149 14.4691395 19.3098404 16.8603372 19.3098404 16.8603372 18.9074468 14.9491977 18.9074468"></polygon>
                        <path d="M18.8222907,17.2888298 C18.2408721,17.1579787 17.6642674,17.0925532 17.6642674,16.65 C17.6642674,16.1824468 18.0691744,16.0364362 18.4732791,16.0364362 C18.9691163,16.0364362 19.3127791,16.2577128 19.3681395,16.7710106 L19.823593,16.7710106 C19.7933721,15.981383 19.2317442,15.6345745 18.4936047,15.6345745 C17.8365,15.6345745 17.1842093,15.956117 17.1842093,16.6853723 C17.1842093,17.3441489 17.7656279,17.5098404 18.3416977,17.6353723 C18.9183023,17.7611702 19.4946395,17.8468085 19.4946395,18.3396277 C19.4946395,18.8574468 19.0145814,18.9930851 18.5794535,18.9930851 C18.0336047,18.9930851 17.5278721,18.7319149 17.5278721,18.1281915 L17.0729535,18.1281915 C17.0729535,19.0029255 17.7557326,19.3952128 18.5642093,19.3952128 C19.2218488,19.3952128 19.9749651,19.0888298 19.9749651,18.324734 C19.9752326,17.6202128 19.3991628,17.4191489 18.8222907,17.2888298 Z" id="Shape"></path>
                    </g>
                </g>
            </g>
        </g>
    </g>
</svg>