<?xml version="1.0" encoding="UTF-8"?>
<svg width="19px" height="20px" viewBox="0 0 19 20" version="1.1" xmlns="http://www.w3.org/2000/svg" xmlns:xlink="http://www.w3.org/1999/xlink">
    <!-- Generator: Sketch 42 (36781) - http://www.bohemiancoding.com/sketch -->
    <title>Group 14</title>
    <desc>Created with Sketch.</desc>
    <defs></defs>
    <g id="Page-1" stroke="none" stroke-width="1" fill="none" fill-rule="evenodd">
        <g id="Dashboard" transform="translate(-1122.000000, -509.000000)" fill-rule="nonzero" fill="#CCCCCC">
            <g id="Group-14" transform="translate(1122.000000, 509.000000)">
                <g id="noun_954373_cc">
                    <g id="Group">
                        <g>
                            <path d="M17.816506,18.3680556 L15.8331098,18.3680556 L15.8331098,17.5694444 L17.816506,17.5694444 C17.9452306,17.5694444 18.0616067,17.5078313 18.1358254,17.4005776 C18.2115874,17.2914077 18.2285687,17.1568822 18.1833642,17.031301 L16.0801101,11.2394132 C15.9556541,10.8962897 15.6881499,10.633467 15.3468224,10.5180275 L11.4031752,9.18402778 L7.59676288,9.18402778 L3.65351051,10.5180275 C3.31178784,10.633467 3.04428355,10.8962897 2.91944294,11.2398122 L0.816929463,17.0313011 C0.771329463,17.1568822 0.788350375,17.2914078 0.864112875,17.4005777 C0.938331625,17.5078313 1.05467215,17.5694444 1.18339188,17.5694444 L3.56227612,17.5694444 L3.56227612,18.3680556 L1.18339188,18.3680556 C0.798404383,18.3680556 0.436177379,18.1773472 0.215064879,17.8579822 C-0.00759137083,17.5367011 -0.0605538312,17.1248974 0.0735940854,16.7567785 L2.17606794,10.9648906 C2.38442954,10.392486 2.83089,9.95337003 3.40184,9.76074467 L7.46764188,8.38541667 L11.5322962,8.38541667 L15.5984538,9.76074467 C16.1686118,9.95337003 16.615469,10.392486 16.8234391,10.9645311 L18.9266993,16.7567785 C19.0604523,17.1248974 19.0074896,17.5367011 18.7848393,17.8579822 C18.5637202,18.1773472 18.2015339,18.3680556 17.816506,18.3680556 Z" id="Shape"></path>
                            <polygon id="Shape" points="9.49977651 12.7325363 7.18505663 8.996474 7.85611252 8.57297045 9.49977651 11.225797 11.1437856 8.57297045 11.8148415 8.996474"></polygon>
                            <path d="M9.49977651,7.58680556 C7.63345627,7.58680556 6.33310985,5.27207126 6.33310985,3.19444444 C6.33310985,1.43306775 7.75371067,0 9.49977651,0 C11.2462274,0 12.6668388,1.43306775 12.6668388,3.19444444 C12.6668388,5.73961826 11.3347352,7.58680556 9.49977651,7.58680556 Z M9.49977651,0.798611111 C8.19011653,0.798611111 7.12477651,1.87330212 7.12477651,3.19444444 C7.12477651,5.0416321 8.27902592,6.78819444 9.49977651,6.78819444 C10.8762813,6.78819444 11.8751721,5.27674302 11.8751721,3.19444444 C11.8751721,1.87330212 10.8094252,0.798611111 9.49977651,0.798611111 Z" id="Shape"></path>
                            <path d="M14.200693,19.1666667 L5.19469302,19.1666667 L4.4772398,13.7347134 C4.43203579,13.3927087 4.53523453,13.0472295 4.76057742,12.7875204 C4.98632125,12.5274136 5.31181496,12.3784722 5.6542896,12.3784722 L13.7414418,12.3784722 C14.0839214,12.3784722 14.4094106,12.5274136 14.6351547,12.7875204 C14.8605471,13.0472295 14.9637349,13.3927087 14.9184912,13.7350729 L14.200693,19.1666667 Z M5.88819298,18.3680556 L13.5071934,18.3680556 L14.1337977,13.6294171 C14.149269,13.513219 14.1156235,13.4012936 14.0394644,13.3131672 C13.9629505,13.2254398 13.8574207,13.1770833 13.7414418,13.1770833 L5.6542896,13.1770833 C5.53835038,13.1770833 5.43282097,13.2254398 5.356267,13.3131671 C5.28010867,13.4012936 5.2465021,13.513219 5.2619398,13.629018 L5.88819298,18.3680556 Z" id="Shape"></path>
                            <rect id="Rectangle-path" x="4.35394282" y="18.3680556" width="10.6875" height="0.798611111"></rect>
                        </g>
                    </g>
                </g>
            </g>
        </g>
    </g>
</svg>