<?xml version="1.0" encoding="UTF-8"?>
<svg width="22px" height="17px" viewBox="0 0 22 17" version="1.1" xmlns="http://www.w3.org/2000/svg" xmlns:xlink="http://www.w3.org/1999/xlink">
    <!-- Generator: Sketch 42 (36781) - http://www.bohemiancoding.com/sketch -->
    <title>Group 9</title>
    <desc>Created with Sketch.</desc>
    <defs></defs>
    <g id="Page-1" stroke="none" stroke-width="1" fill="none" fill-rule="evenodd">
        <g id="Dashboard-Select" transform="translate(-563.000000, -435.000000)" stroke-width="0.3" stroke="#333333" fill="#333333" fill-rule="nonzero">
            <g id="Group-9" transform="translate(564.000000, 435.000000)">
                <g id="Group-13">
                    <g id="Group">
                        <path d="M3.38955556,4.09396122 C3.53444444,4.19745152 3.736,4.16421053 3.83955556,4.01972299 L3.83955556,4.01972299 C5.31977778,1.95944598 7.64466667,0.863601108 10.0064444,0.863157895 C11.5348889,0.863379501 13.0755556,1.32210526 14.4133333,2.27789474 C16.4793333,3.75401662 17.578,6.07246537 17.5786667,8.42770083 C17.5786667,8.7567867 17.5544444,9.08609418 17.5111111,9.41429363 L16.0668889,7.87900277 C15.9448889,7.74936288 15.7408889,7.74293629 15.6108889,7.86459834 C15.4808889,7.98626039 15.4744444,8.18969529 15.5964444,8.31933518 L17.4497778,10.2891967 C17.4944444,10.3567867 17.5642222,10.4079778 17.6497778,10.4265928 C17.8075556,10.4609418 17.9624444,10.3734072 18.0186667,10.2278116 L19.8982222,8.46936288 C20.0282222,8.34792244 20.0346667,8.14426593 19.9128889,8.01462604 C19.7908889,7.88498615 19.5868889,7.87855956 19.4568889,8.00022161 L18.1864444,9.18891967 C18.21,8.93540166 18.2242222,8.68144044 18.2242222,8.42792244 C18.2246667,5.87457064 17.0302222,3.35601108 14.7895556,1.75512465 C13.34,0.719113573 11.6644444,0.219833795 10.0068889,0.220055402 C7.44644444,0.219612188 4.92088889,1.41074792 3.31555556,3.64520776 C3.21155556,3.78947368 3.24466667,3.99047091 3.38955556,4.09396122 Z" id="Shape"></path>
                        <path d="M0.543333333,8.84144044 L1.814,7.65274238 C1.79022222,7.90648199 1.77622222,8.16066482 1.77622222,8.41440443 C1.77577778,10.9677562 2.97022222,13.4865374 5.21088889,15.0874238 C6.66044444,16.1232133 8.336,16.6224931 9.99355556,16.6222715 C12.554,16.6227147 15.0795556,15.4315789 16.6848889,13.1971191 C16.7886667,13.0526316 16.7553333,12.8516343 16.6104444,12.7483657 C16.4655556,12.6448753 16.264,12.6781163 16.1604444,12.8226039 L16.1604444,12.8226039 C14.68,14.8826593 12.3553333,15.9785042 9.99333333,15.9789474 C8.46488889,15.9787258 6.92422222,15.52 5.58644444,14.5644321 C3.52044444,13.0880886 2.42155556,10.7698615 2.42111111,8.41440443 C2.42111111,8.08509695 2.44533333,7.75556787 2.48866667,7.42714681 L3.93288889,8.96243767 C4.05488889,9.09207756 4.25888889,9.09850416 4.38888889,8.97684211 C4.51888889,8.85540166 4.52533333,8.65174515 4.40355556,8.52210526 L2.554,6.55601108 C2.50955556,6.48620499 2.43844444,6.433241 2.35088889,6.41418283 C2.19288889,6.37961219 2.03777778,6.46759003 1.98177778,6.61362881 L0.102,8.37229917 C-0.028,8.49373961 -0.0344444444,8.69739612 0.0873333333,8.82703601 C0.209333333,8.95645429 0.413333333,8.96288089 0.543333333,8.84144044 Z" id="Shape"></path>
                    </g>
                    <g id="noun_771994_cc-(1)" transform="translate(6.888889, 4.432133)">
                        <g id="Group">
                            <path d="M0.333730159,1.97685273 C0.184126984,1.97685273 0.0575396825,2.10040603 0.0575396825,2.24642356 C0.0575396825,2.39244109 0.184126984,2.51599438 0.333730159,2.51599438 L1.69166667,2.51599438 L4.15436508,2.51599438 C4.01626984,3.27977839 3.33730159,3.86384852 2.5202381,3.86384852 L2.38214286,3.86384852 L0.586904762,3.86384852 C0.471825397,3.86384852 0.368253968,3.93124122 0.333730159,4.03233028 C0.287698413,4.13341935 0.310714286,4.24574052 0.391269841,4.32436535 L4.26944444,8.10958904 C4.32698413,8.16574963 4.39603175,8.18821387 4.46507937,8.18821387 C4.53412698,8.18821387 4.6031746,8.16574963 4.66071429,8.10958904 C4.76428571,8.00849998 4.76428571,7.8287861 4.66071429,7.72769704 L4.07380952,7.15485903 L1.25436508,4.41422229 L2.5202381,4.41422229 L2.65833333,4.41422229 C3.72857143,4.34682958 4.59166667,3.54934922 4.71825397,2.5272265 L6.09920635,2.5272265 C6.24880952,2.5272265 6.37539683,2.40367321 6.37539683,2.25765567 C6.37539683,2.11163814 6.24880952,1.98808485 6.09920635,1.98808485 L4.71825397,1.98808485 C4.64920635,1.44894319 4.38452381,0.977194247 3.98174603,0.640230714 L6.09920635,0.640230714 C6.24880952,0.640230714 6.37539683,0.516677418 6.37539683,0.370659887 C6.37539683,0.224642356 6.24880952,0.10108906 6.09920635,0.10108906 L2.53174603,0.10108906 L0.586904762,0.10108906 L0.333730159,0.10108906 C0.184126984,0.10108906 0.0575396825,0.224642356 0.0575396825,0.370659887 C0.0575396825,0.516677418 0.184126984,0.640230714 0.333730159,0.640230714 L0.586904762,0.640230714 L0.725,0.640230714 L2.53174603,0.640230714 C3.34880952,0.640230714 4.03928571,1.22430084 4.16587302,1.98808485 L1.41547619,1.98808485 L0.333730159,1.98808485 L0.333730159,1.97685273 Z" id="Shape"></path>
                        </g>
                    </g>
                </g>
            </g>
        </g>
    </g>
</svg>