<?xml version="1.0" encoding="UTF-8"?>
<svg width="16px" height="20px" viewBox="0 0 16 20" version="1.1" xmlns="http://www.w3.org/2000/svg" xmlns:xlink="http://www.w3.org/1999/xlink">
    <!-- Generator: Sketch 42 (36781) - http://www.bohemiancoding.com/sketch -->
    <title>Group 11</title>
    <desc>Created with Sketch.</desc>
    <defs></defs>
    <g id="Page-1" stroke="none" stroke-width="1" fill="none" fill-rule="evenodd">
        <g id="Dashboard-Select" transform="translate(-979.000000, -434.000000)" fill="#333333">
            <g id="noun_700331_cc" transform="translate(979.000000, 434.000000)">
                <g id="Group-11">
                    <g id="Group">
                        <g>
                            <path d="M15.7666667,3.33333333 C15.7666667,1.73333333 14.6,0.533333333 12.9666667,0.533333333 L12.6333333,0.533333333 L12.6333333,1.33333333 L12.7,1.33333333 L12.9,1.33333333 C13.1333333,1.33333333 13.4,1.33333333 13.7,1.43333333 C14.5,1.7 14.9666667,2.4 14.9666667,3.3 L14.9666667,9.13333333 L14.9666667,11.3666667 L14.9666667,11.9666667 L14.9666667,16.3333333 C14.9666667,16.8666667 14.8,17.3333333 14.4333333,17.7333333 C14.0666667,18.1333333 13.5333333,18.3333333 12.9666667,18.3333333 L8.6,18.3333333 L3.06666667,18.3333333 C1.9,18.3333333 1.06666667,17.5333333 1.06666667,16.3333333 L1.06666667,3.53333333 C1.06666667,3.23333333 1.06666667,2.9 1.16666667,2.63333333 C1.4,1.86666667 1.96666667,1.43333333 2.73333333,1.33333333 C2.9,1.3 3.1,1.3 3.36666667,1.3 L3.4,1.3 L3.4,0.533333333 L2.93333333,0.533333333 C2.73333333,0.533333333 2.53333333,0.566666667 2.36666667,0.6 C1.1,0.9 0.266666667,1.96666667 0.266666667,3.26666667 L0.266666667,9.9 L0.266666667,16.4666667 C0.266666667,16.7 0.3,16.9666667 0.366666667,17.2333333 C0.6,18.1666667 1.53333333,19.1666667 2.96666667,19.1666667 L2.96666667,19.1666667 L3.03333333,19.1666667 L4.33333333,19.1666667 L5.33333333,19.1666667 L6.33333333,19.1666667 L6.93333333,19.1666667 L9.9,19.1666667 L13.2333333,19.1666667 C14.5,19.1666667 15.6333333,18.0666667 15.7333333,16.8 C15.7666667,16.1666667 15.7666667,14.1666667 15.7666667,13.5333333 L15.7666667,12.0666667 L15.7666667,3.33333333 Z" id="Shape" fill-rule="nonzero"></path>
                            <path d="M12.5333333,4.3 C12.3333333,4 12,3.8 11.6333333,3.73333333 C11.5666667,3.73333333 11.4666667,3.7 11.4,3.7 C10.7,3.7 10.1333333,4.2 10.0333333,4.86666667 C10,5.16666667 10.0333333,5.46666667 10.1666667,5.73333333 L10.1666667,5.73333333 C9.46666667,6.53333333 8.8,7.33333333 8.06666667,8.16666667 C8.06666667,8.16666667 8.06666667,8.16666667 8.06666667,8.2 C7.96666667,8.13333333 7.83333333,8.1 7.7,8.1 C7.43333333,8.06666667 7.16666667,8.1 6.93333333,8.2 C6.56666667,7.8 6.16666667,7.4 5.83333333,7.03333333 C5.9,6.9 5.93333333,6.76666667 5.96666667,6.63333333 C6.03333333,6.26666667 5.93333333,5.9 5.73333333,5.6 C5.5,5.3 5.2,5.1 4.83333333,5.03333333 C4.76666667,5.03333333 4.66666667,5 4.6,5 C3.9,5 3.33333333,5.5 3.23333333,6.16666667 C3.2,6.36666667 3.2,6.56666667 3.26666667,6.76666667 C3.33333333,6.93333333 3.4,7.13333333 3.53333333,7.26666667 C3.73333333,7.53333333 4.03333333,7.7 4.36666667,7.76666667 C4.63333333,7.8 4.93333333,7.76666667 5.2,7.66666667 C5.36666667,7.86666667 5.56666667,8.03333333 5.73333333,8.23333333 L5.76666667,8.26666667 C5.93333333,8.43333333 6.1,8.63333333 6.26666667,8.8 C6.2,8.93333333 6.13333333,9.1 6.1,9.26666667 C6.03333333,9.63333333 6.1,10 6.33333333,10.3333333 C6.56666667,10.6333333 6.86666667,10.8333333 7.23333333,10.9 C7.3,10.9 7.4,10.9333333 7.46666667,10.9333333 L7.46666667,10.9333333 C8.16666667,10.9333333 8.73333333,10.4333333 8.83333333,9.76666667 C8.86666667,9.46666667 8.83333333,9.16666667 8.7,8.9 C9.36666667,8.1 10.1,7.26666667 10.8333333,6.43333333 C10.9333333,6.46666667 11.0666667,6.53333333 11.1666667,6.53333333 C11.2333333,6.53333333 11.3333333,6.56666667 11.4,6.56666667 C11.8333333,6.56666667 12.2666667,6.36666667 12.5333333,6 C12.6666667,5.83333333 12.7333333,5.63333333 12.7666667,5.43333333 L12.7666667,5.4 C12.8333333,5 12.7666667,4.6 12.5333333,4.3 Z M6.93333333,9.86666667 C6.83333333,9.73333333 6.76666667,9.53333333 6.8,9.36666667 C6.83333333,9.06666667 7.13333333,8.83333333 7.43333333,8.83333333 L7.43333333,8.83333333 L7.53333333,8.83333333 C7.9,8.9 8.13333333,9.2 8.06666667,9.56666667 C8,9.93333333 7.7,10.1666667 7.33333333,10.1333333 C7.2,10.1333333 7.03333333,10.0333333 6.93333333,9.86666667 Z M12.0666667,5.23333333 C12,5.6 11.7,5.83333333 11.3333333,5.8 C11.1666667,5.76666667 11,5.66666667 10.9,5.53333333 C10.8,5.4 10.7333333,5.2 10.7666667,5.03333333 C10.8,4.73333333 11.1,4.5 11.4,4.5 L11.4,4.5 L11.5,4.5 C11.8666667,4.56666667 12.1,4.86666667 12.0666667,5.23333333 Z M5.23333333,6.5 C5.16666667,6.86666667 4.86666667,7.1 4.5,7.06666667 C4.33333333,7.03333333 4.16666667,6.93333333 4.06666667,6.8 C3.96666667,6.66666667 3.9,6.46666667 3.93333333,6.3 C3.96666667,6 4.26666667,5.76666667 4.56666667,5.76666667 L4.56666667,5.76666667 L4.66666667,5.76666667 C5.06666667,5.83333333 5.26666667,6.13333333 5.23333333,6.5 Z" id="Shape" fill-rule="nonzero"></path>
                            <rect id="Rectangle-path" fill-rule="nonzero" x="2.83333333" y="12.8333333" width="2.43333333" height="0.833333333"></rect>
                            <rect id="Rectangle-path" fill-rule="nonzero" x="5.93333333" y="12.8333333" width="7.06666667" height="0.833333333"></rect>
                            <rect id="Rectangle-path" fill-rule="nonzero" x="2.83333333" y="15.1" width="6.66666667" height="0.833333333"></rect>
                            <rect id="Rectangle-path" fill-rule="nonzero" x="10.1666667" y="15.1" width="2.8" height="0.833333333"></rect>
                            <rect id="Rectangle-24" x="4" y="0" width="8" height="1" rx="0.5"></rect>
                        </g>
                    </g>
                </g>
            </g>
        </g>
    </g>
</svg>