<?xml version="1.0" encoding="UTF-8"?>
<svg width="15px" height="18px" viewBox="0 0 15 18" version="1.1" xmlns="http://www.w3.org/2000/svg" xmlns:xlink="http://www.w3.org/1999/xlink">
    <!-- Generator: Sketch 42 (36781) - http://www.bohemiancoding.com/sketch -->
    <title>Group 12</title>
    <desc>Created with Sketch.</desc>
    <defs></defs>
    <g id="Page-1" stroke="none" stroke-width="1" fill="none" fill-rule="evenodd">
        <g id="Dashboard-Select" transform="translate(-1161.000000, -436.000000)" stroke-width="0.2" stroke="#333333" fill="#333333" fill-rule="nonzero">
            <g id="noun_668164_cc" transform="translate(1162.000000, 436.000000)">
                <g id="Group-12">
                    <g id="Group">
                        <g transform="translate(0.000000, 0.121490)" id="Shape">
                            <path d="M1.14705882,0.0689866667 C0.518201985,0.0689866667 0,0.585289524 0,1.21184381 L0,15.6880343 C0,16.3145867 0.518201985,16.8308914 1.14705882,16.8308914 L4.58823529,16.8308914 C4.72612518,16.8328339 4.85438322,16.7606526 4.92389711,16.6419871 C4.99341099,16.5233216 4.99341099,16.3765565 4.92389711,16.257891 C4.85438322,16.1392255 4.72612518,16.0670442 4.58823529,16.0689867 L1.14705882,16.0689867 C0.928621926,16.0689867 0.764705882,15.9056724 0.764705882,15.6880343 L0.764705882,1.21184381 C0.764705882,0.994207619 0.928621926,0.830891429 1.14705882,0.830891429 L6.11764706,0.830891429 C6.33608396,0.830891429 6.5,0.994207619 6.5,1.21184381 L6.5,4.25946286 C6.49805038,4.39684765 6.57049704,4.52463588 6.68959884,4.59389514 C6.80870064,4.6631544 6.95600524,4.6631544 7.07510704,4.59389514 C7.19420884,4.52463588 7.2666555,4.39684765 7.26470588,4.25946286 L7.26470588,1.21184381 C7.26470588,0.585289524 6.7465039,0.0689866667 6.11764706,0.0689866667 L1.14705882,0.0689866667 Z M9.89935662,4.82493905 C9.75863675,4.8400252 9.63778863,4.93131867 9.5852249,5.06224663 C9.53266118,5.19317458 9.5569794,5.34232189 9.6484375,5.44993905 L11.8111213,8.06898667 L2.29411765,8.06898667 L2.25827206,8.06898667 C2.0580451,8.07832 1.88445629,8.26829143 1.89384191,8.46779619 C1.90322676,8.6672819 2.09389451,8.8402819 2.29411765,8.83089143 L11.8111213,8.83089143 L9.6484375,11.4439867 C9.54200777,11.5454521 9.50353638,11.6988051 9.54953432,11.8382301 C9.59553227,11.9776552 9.71782018,12.0783597 9.86391494,12.0971235 C10.0100097,12.1158874 10.1539327,12.0493741 10.2339154,11.9261295 L12.910386,8.68803429 C13.0254313,8.54775788 13.0254313,8.34616784 12.910386,8.20589143 L10.2339154,4.96779619 C10.1537527,4.86695763 10.0279307,4.81323145 9.89935662,4.82493905 Z M6.84053309,12.2535105 C6.64354634,12.2750781 6.49573784,12.4430142 6.5,12.6404152 L6.5,15.6880343 C6.5,15.9056724 6.33608396,16.0689867 6.11764706,16.0689867 C5.97975718,16.0670442 5.85149914,16.1392255 5.78198525,16.257891 C5.71247136,16.3765565 5.71247136,16.5233216 5.78198525,16.6419871 C5.85149914,16.7606526 5.97975718,16.8328339 6.11764706,16.8308914 C6.7465039,16.8308914 7.26470588,16.3145867 7.26470588,15.6880343 L7.26470588,12.6404152 C7.26707792,12.5307024 7.22185351,12.4252984 7.1406146,12.3511972 C7.05937569,12.277096 6.95001256,12.2414946 6.84053309,12.2535105 Z"></path>
                        </g>
                    </g>
                </g>
            </g>
        </g>
    </g>
</svg>