<?xml version="1.0" encoding="UTF-8"?>
<svg width="8px" height="8px" viewBox="0 0 8 8" version="1.1" xmlns="http://www.w3.org/2000/svg" xmlns:xlink="http://www.w3.org/1999/xlink">
    <!-- Generator: Sketch 42 (36781) - http://www.bohemiancoding.com/sketch -->
    <title>Shape</title>
    <desc>Created with Sketch.</desc>
    <defs></defs>
    <g id="Page-1" stroke="none" stroke-width="1" fill="none" fill-rule="evenodd">
        <g id="Create-NEwGroup" transform="translate(-330.000000, -215.000000)" fill-rule="nonzero" fill="#90A4AE">
            <g id="add-2" transform="translate(334.140748, 219.069991) rotate(46.000000) translate(-334.140748, -219.069991) translate(329.140748, 214.069991)">
                <g id="Group" transform="translate(-0.000000, 0.000000)">
                    <path d="M9.30512266,4.42560712 L5.56037818,4.42560712 L5.56037818,0.680862634 C5.56037818,0.363126738 5.31072854,0.113477106 4.99299265,0.113477106 C4.67525675,0.113477106 4.42560712,0.363126738 4.42560712,0.680862634 L4.42560712,4.42560712 L0.680862634,4.42560712 C0.363126738,4.42560712 0.113477106,4.67525675 0.113477106,4.99299265 C0.113477106,5.31072854 0.363126738,5.56037818 0.680862634,5.56037818 L4.42560712,5.56037818 L4.42560712,9.30512266 C4.42560712,9.62285856 4.67525675,9.87250819 4.99299265,9.87250819 C5.31072854,9.87250819 5.56037818,9.62285856 5.56037818,9.30512266 L5.56037818,5.56037818 L9.30512266,5.56037818 C9.62285856,5.56037818 9.87250819,5.31072854 9.87250819,4.99299265 C9.87250819,4.67525675 9.62285856,4.42560712 9.30512266,4.42560712 Z" id="Shape"></path>
                </g>
            </g>
        </g>
    </g>
</svg>