<?xml version="1.0" encoding="UTF-8"?>
<svg width="48px" height="40px" viewBox="0 0 48 40" version="1.1" xmlns="http://www.w3.org/2000/svg" xmlns:xlink="http://www.w3.org/1999/xlink">
    <!-- Generator: Sketch 42 (36781) - http://www.bohemiancoding.com/sketch -->
    <title>noun_874655_cc</title>
    <desc>Created with Sketch.</desc>
    <defs></defs>
    <g id="Page-1" stroke="none" stroke-width="1" fill="none" fill-rule="evenodd">
        <g id="Create-NEwGroup" transform="translate(-105.000000, -403.000000)" fill-rule="nonzero" fill="#B7BCC6">
            <g id="noun_874655_cc" transform="translate(105.000000, 403.000000)">
                <g id="Group">
                    <g transform="translate(0.000000, 0.332776)" id="Shape">
                        <path d="M24,0.188953043 C20.2653913,0.188953043 16.510487,1.61328522 13.6630435,4.46069217 C11.5454609,6.57825913 10.2617217,9.20512696 9.7173913,11.9443878 C4.19170435,13.0163217 -1.04351784e-07,17.8420696 -1.04351784e-07,23.6672348 C-1.04351784e-07,30.2760522 5.39113043,35.6672348 12,35.6672348 L17.7391304,35.6672348 C18.303604,35.6752178 18.8286491,35.3786474 19.1132156,34.891086 C19.397782,34.4035246 19.397782,33.8005102 19.1132156,33.3129488 C18.8286491,32.8253874 18.303604,32.5288169 17.7391304,32.5368 L12,32.5368 C7.08302609,32.5368 3.13043468,28.5842087 3.13043468,23.6672348 C3.13043468,19.0238087 6.66182609,15.240887 11.1847826,14.8302783 C11.9155244,14.7590704 12.498588,14.1895578 12.5869565,13.4606922 C12.8749565,10.9797757 13.9727478,8.56945043 15.8804348,6.66177913 C18.1268348,4.41544696 21.0583304,3.31938783 24,3.31938783 C26.9416696,3.31938783 29.8546957,4.41312522 32.1032348,6.66177913 C34.7017043,9.26020696 35.8012696,12.7905391 35.3967652,16.1672348 C35.3407521,16.6122188 35.4782955,17.0598547 35.7745111,17.3966107 C36.0707266,17.7333666 36.4971583,17.9268922 36.9456522,17.9281043 L37.5652174,17.9281043 C41.6389043,17.9281043 44.8695652,21.1587652 44.8695652,25.2324522 C44.8695652,29.3061391 41.6389043,32.5368 37.5652174,32.5368 L30.2608696,32.5368 C29.696396,32.5288169 29.1713509,32.8253874 28.8867844,33.3129488 C28.602218,33.8005102 28.602218,34.4035246 28.8867844,34.891086 C29.1713509,35.3786474 29.696396,35.6752178 30.2608696,35.6672348 L37.5652174,35.6672348 C43.3190087,35.6672348 48,30.9862435 48,25.2324522 C48,19.802087 43.8165913,15.3814435 38.5108696,14.8954957 C38.5353913,11.1185896 37.1938957,7.33390435 34.3206261,4.46069217 C31.475687,1.61560696 27.7346087,0.188953043 24,0.188953043 Z M24,16.8846261 C23.4781565,16.8846261 23.2022087,17.0525217 22.9402435,17.2922087 L17.201113,22.5096 C16.5384,23.1246261 16.5500348,24.1227652 17.1032348,24.7269913 C17.656487,25.3312174 18.7136348,25.3749391 19.3206261,24.8248174 L22.4347826,21.9878609 L22.4347826,37.2324522 C22.4347826,38.0968696 23.1354261,38.7976696 24,38.7976696 C24.8646261,38.7976696 25.5652174,38.0968696 25.5652174,37.2324522 L25.5652174,21.9878609 L28.6793739,24.8248174 C29.2864174,25.3749391 30.3115826,25.3003826 30.8967652,24.7269913 C31.5134087,24.1227652 31.4004522,23.0657217 30.798887,22.5096 L25.0597565,17.2922087 C24.749687,17.0083304 24.5218435,16.8846261 24,16.8846261 Z"></path>
                    </g>
                </g>
            </g>
        </g>
    </g>
</svg>