<?xml version="1.0" encoding="UTF-8"?>
<svg width="90px" height="90px" viewBox="0 0 90 90" version="1.1" xmlns="http://www.w3.org/2000/svg" xmlns:xlink="http://www.w3.org/1999/xlink">
    <!-- Generator: Sketch 42 (36781) - http://www.bohemiancoding.com/sketch -->
    <title>Group 2</title>
    <desc>Created with Sketch.</desc>
    <defs>
        <circle id="path-1" cx="35" cy="35" r="35"></circle>
        <filter x="-50%" y="-50%" width="200%" height="200%" filterUnits="objectBoundingBox" id="filter-2">
            <feOffset dx="0" dy="2" in="SourceAlpha" result="shadowOffsetOuter1"></feOffset>
            <feGaussianBlur stdDeviation="5" in="shadowOffsetOuter1" result="shadowBlurOuter1"></feGaussianBlur>
            <feColorMatrix values="0 0 0 0 0   0 0 0 0 0   0 0 0 0 0  0 0 0 0.284759964 0" type="matrix" in="shadowBlurOuter1"></feColorMatrix>
        </filter>
    </defs>
    <g id="Page-1" stroke="none" stroke-width="1" fill="none" fill-rule="evenodd">
        <g id="Login-First-Time" transform="translate(-306.000000, -313.000000)">
            <g id="Group-7" transform="translate(30.000000, 203.000000)">
                <g id="Group-4" transform="translate(1.000000, 0.000000)">
                    <g id="Group-2" transform="translate(285.000000, 118.000000)">
                        <g id="Group-19">
                            <g id="Oval-3">
                                <use fill="black" fill-opacity="1" filter="url(#filter-2)" xlink:href="#path-1"></use>
                                <use fill="#448AFF" fill-rule="evenodd" xlink:href="#path-1"></use>
                            </g>
                            <g id="Visas" transform="translate(23.000000, 19.000000)" stroke-width="0.3" stroke="#FFFFFF" fill="#FFFFFF" fill-rule="nonzero">
                                <g id="Group">
                                    <g id="Shape">
                                        <path d="M21.8033898,0 L2.11525424,0 C0.976271186,0 0.0813559322,0.894915254 0.0813559322,2.03389831 L0.0813559322,30.1016949 C0.0813559322,31.240678 0.976271186,32.1355932 2.11525424,32.1355932 L21.8033898,32.1355932 C22.9423729,32.1355932 23.8372881,31.240678 23.8372881,30.1016949 L23.8372881,2.03389831 C23.8372881,0.894915254 22.9016949,0 21.8033898,0 Z M22.6169492,30.1016949 C22.6169492,30.5491525 22.2508475,30.9152542 21.8033898,30.9152542 L2.11525424,30.9152542 C1.66779661,30.9152542 1.30169492,30.5491525 1.30169492,30.1016949 L1.30169492,2.03389831 C1.30169492,1.58644068 1.66779661,1.22033898 2.11525424,1.22033898 L21.8033898,1.22033898 C22.2508475,1.22033898 22.6169492,1.58644068 22.6169492,2.03389831 L22.6169492,30.1016949 Z"></path>
                                        <path d="M11.959322,5.45084746 C8.25762712,5.45084746 5.28813559,8.46101695 5.28813559,12.1220339 C5.28813559,15.7830508 8.29830508,18.7932203 11.959322,18.7932203 C15.620339,18.7932203 18.6305085,15.7830508 18.6305085,12.1220339 C18.6305085,8.46101695 15.6610169,5.45084746 11.959322,5.45084746 Z M11.959322,6.50847458 C12.6915254,6.50847458 13.7084746,8.46101695 13.7898305,11.5932203 L10.0881356,11.5932203 C10.2101695,8.46101695 11.2271186,6.50847458 11.959322,6.50847458 Z M10.1694915,6.79322034 C9.51864407,7.97288136 9.15254237,9.80338983 9.07118644,11.5932203 L6.38644068,11.5932203 C6.54915254,9.3559322 8.09491525,7.48474576 10.1694915,6.79322034 Z M6.34576271,12.6508475 L9.03050847,12.6508475 C9.11186441,14.440678 9.4779661,16.2711864 10.1288136,17.4508475 C8.09491525,16.759322 6.54915254,14.8881356 6.34576271,12.6508475 Z M11.959322,17.7355932 C11.2271186,17.7355932 10.2101695,15.7830508 10.1288136,12.6508475 L13.8305085,12.6508475 C13.7084746,15.7830508 12.6915254,17.7355932 11.959322,17.7355932 Z M13.7491525,17.4508475 C14.4,16.2711864 14.7661017,14.440678 14.8474576,12.6508475 L17.5322034,12.6508475 C17.3694915,14.8881356 15.8237288,16.759322 13.7491525,17.4508475 Z M14.8474576,11.5932203 C14.7661017,9.80338983 14.4,7.97288136 13.7491525,6.79322034 C15.8237288,7.48474576 17.3288136,9.3559322 17.5322034,11.5932203 L14.8474576,11.5932203 Z"></path>
                                        <path d="M17.7355932,22.4949153 L6.18305085,22.4949153 C5.89830508,22.4949153 5.69491525,22.7389831 5.69491525,22.9830508 C5.69491525,23.2271186 5.93898305,23.4711864 6.18305085,23.4711864 L17.7355932,23.4711864 C18.020339,23.4711864 18.2237288,23.2271186 18.2237288,22.9830508 C18.2237288,22.7389831 18.020339,22.4949153 17.7355932,22.4949153 Z"></path>
                                        <path d="M15.7016949,25.3423729 L8.21694915,25.3423729 C7.93220339,25.3423729 7.72881356,25.5864407 7.72881356,25.8305085 C7.72881356,26.0745763 7.97288136,26.3186441 8.21694915,26.3186441 L15.7016949,26.3186441 C15.9864407,26.3186441 16.1898305,26.0745763 16.1898305,25.8305085 C16.1898305,25.5864407 15.9864407,25.3423729 15.7016949,25.3423729 Z"></path>
                                    </g>
                                </g>
                            </g>
                        </g>
                    </g>
                </g>
            </g>
        </g>
    </g>
</svg>