<?xml version="1.0" encoding="UTF-8"?>
<svg width="15px" height="21px" viewBox="0 0 15 21" version="1.1" xmlns="http://www.w3.org/2000/svg" xmlns:xlink="http://www.w3.org/1999/xlink">
    <!-- Generator: Sketch 42 (36781) - http://www.bohemiancoding.com/sketch -->
    <title>Group 4</title>
    <desc>Created with Sketch.</desc>
    <defs></defs>
    <g id="Page-1" stroke="none" stroke-width="1" fill="none" fill-rule="evenodd">
        <g id="Dashboard" transform="translate(-1124.000000, -136.000000)" fill-rule="nonzero" fill="#CCCCCC">
            <g id="Group-7" transform="translate(1064.000000, 54.000000)">
                <g id="Group-4" transform="translate(60.000000, 82.000000)">
                    <g id="Visas">
                        <g id="Group" transform="translate(0.000000, -0.000000)">
                            <g id="Shape">
                                <path d="M13.6271186,0 L1.3220339,0 C0.610169492,0 0.0508474576,0.56379661 0.0508474576,1.28135593 L0.0508474576,18.9640678 C0.0508474576,19.6816271 0.610169492,20.2454237 1.3220339,20.2454237 L13.6271186,20.2454237 C14.3389831,20.2454237 14.8983051,19.6816271 14.8983051,18.9640678 L14.8983051,1.28135593 C14.8983051,0.56379661 14.3135593,0 13.6271186,0 Z M14.1355932,18.9640678 C14.1355932,19.2459661 13.9067797,19.4766102 13.6271186,19.4766102 L1.3220339,19.4766102 C1.04237288,19.4766102 0.813559322,19.2459661 0.813559322,18.9640678 L0.813559322,1.28135593 C0.813559322,0.999457627 1.04237288,0.768813559 1.3220339,0.768813559 L13.6271186,0.768813559 C13.9067797,0.768813559 14.1355932,0.999457627 14.1355932,1.28135593 L14.1355932,18.9640678 Z"></path>
                                <path d="M7.47457627,3.4340339 C5.16101695,3.4340339 3.30508475,5.33044068 3.30508475,7.63688136 C3.30508475,9.94332203 5.18644068,11.8397288 7.47457627,11.8397288 C9.76271186,11.8397288 11.6440678,9.94332203 11.6440678,7.63688136 C11.6440678,5.33044068 9.78813559,3.4340339 7.47457627,3.4340339 Z M7.47457627,4.10033898 C7.93220339,4.10033898 8.56779661,5.33044068 8.61864407,7.30372881 L6.30508475,7.30372881 C6.38135593,5.33044068 7.01694915,4.10033898 7.47457627,4.10033898 Z M6.3559322,4.27972881 C5.94915254,5.02291525 5.72033898,6.17613559 5.66949153,7.30372881 L3.99152542,7.30372881 C4.09322034,5.89423729 5.05932203,4.71538983 6.3559322,4.27972881 Z M3.96610169,7.9700339 L5.6440678,7.9700339 C5.69491525,9.09762712 5.92372881,10.2508475 6.33050847,10.9940339 C5.05932203,10.5583729 4.09322034,9.37952542 3.96610169,7.9700339 Z M7.47457627,11.1734237 C7.01694915,11.1734237 6.38135593,9.94332203 6.33050847,7.9700339 L8.6440678,7.9700339 C8.56779661,9.94332203 7.93220339,11.1734237 7.47457627,11.1734237 Z M8.59322034,10.9940339 C9,10.2508475 9.22881356,9.09762712 9.27966102,7.9700339 L10.9576271,7.9700339 C10.8559322,9.37952542 9.88983051,10.5583729 8.59322034,10.9940339 Z M9.27966102,7.30372881 C9.22881356,6.17613559 9,5.02291525 8.59322034,4.27972881 C9.88983051,4.71538983 10.8305085,5.89423729 10.9576271,7.30372881 L9.27966102,7.30372881 Z"></path>
                                <path d="M11.0847458,14.1717966 L3.86440678,14.1717966 C3.68644068,14.1717966 3.55932203,14.3255593 3.55932203,14.479322 C3.55932203,14.6330847 3.71186441,14.7868475 3.86440678,14.7868475 L11.0847458,14.7868475 C11.2627119,14.7868475 11.3898305,14.6330847 11.3898305,14.479322 C11.3898305,14.3255593 11.2627119,14.1717966 11.0847458,14.1717966 Z"></path>
                                <path d="M9.81355932,15.9656949 L5.13559322,15.9656949 C4.95762712,15.9656949 4.83050847,16.1194576 4.83050847,16.2732203 C4.83050847,16.4269831 4.98305085,16.5807458 5.13559322,16.5807458 L9.81355932,16.5807458 C9.99152542,16.5807458 10.1186441,16.4269831 10.1186441,16.2732203 C10.1186441,16.1194576 9.99152542,15.9656949 9.81355932,15.9656949 Z"></path>
                            </g>
                        </g>
                    </g>
                </g>
            </g>
        </g>
    </g>
</svg>