<?xml version="1.0" encoding="UTF-8"?>
<svg width="35px" height="35px" viewBox="0 0 35 35" version="1.1" xmlns="http://www.w3.org/2000/svg" xmlns:xlink="http://www.w3.org/1999/xlink">
    <!-- Generator: Sketch 42 (36781) - http://www.bohemiancoding.com/sketch -->
    <title>Group 20</title>
    <desc>Created with Sketch.</desc>
    <defs></defs>
    <g id="Page-1" stroke="none" stroke-width="1" fill="none" fill-rule="evenodd">
        <g id="Create-NEwGroup" transform="translate(-660.000000, -356.000000)">
            <g id="Group-20" transform="translate(660.000000, 356.000000)">
                <g id="Group-12">
                    <ellipse id="Oval-3" fill="#448AFF" cx="17.5" cy="17.5" rx="17.5" ry="17.5"></ellipse>
                    <g id="Visas" transform="translate(11.500000, 9.500000)" stroke-width="0.3" stroke="#FFFFFF" fill="#FFFFFF" fill-rule="nonzero">
                        <g id="Group">
                            <g id="Shape">
                                <path d="M10.9016949,0 L1.05762712,0 C0.488135593,0 0.0406779661,0.447457627 0.0406779661,1.01694915 L0.0406779661,15.0508475 C0.0406779661,15.620339 0.488135593,16.0677966 1.05762712,16.0677966 L10.9016949,16.0677966 C11.4711864,16.0677966 11.9186441,15.620339 11.9186441,15.0508475 L11.9186441,1.01694915 C11.9186441,0.447457627 11.4508475,0 10.9016949,0 Z M11.3084746,15.0508475 C11.3084746,15.2745763 11.1254237,15.4576271 10.9016949,15.4576271 L1.05762712,15.4576271 C0.833898305,15.4576271 0.650847458,15.2745763 0.650847458,15.0508475 L0.650847458,1.01694915 C0.650847458,0.793220339 0.833898305,0.610169492 1.05762712,0.610169492 L10.9016949,0.610169492 C11.1254237,0.610169492 11.3084746,0.793220339 11.3084746,1.01694915 L11.3084746,15.0508475 Z"></path>
                                <path d="M5.97966102,2.72542373 C4.12881356,2.72542373 2.6440678,4.23050847 2.6440678,6.06101695 C2.6440678,7.89152542 4.14915254,9.39661017 5.97966102,9.39661017 C7.81016949,9.39661017 9.31525424,7.89152542 9.31525424,6.06101695 C9.31525424,4.23050847 7.83050847,2.72542373 5.97966102,2.72542373 Z M5.97966102,3.25423729 C6.34576271,3.25423729 6.85423729,4.23050847 6.89491525,5.79661017 L5.0440678,5.79661017 C5.10508475,4.23050847 5.61355932,3.25423729 5.97966102,3.25423729 Z M5.08474576,3.39661017 C4.75932203,3.98644068 4.57627119,4.90169492 4.53559322,5.79661017 L3.19322034,5.79661017 C3.27457627,4.6779661 4.04745763,3.74237288 5.08474576,3.39661017 Z M3.17288136,6.32542373 L4.51525424,6.32542373 C4.5559322,7.22033898 4.73898305,8.13559322 5.06440678,8.72542373 C4.04745763,8.37966102 3.27457627,7.4440678 3.17288136,6.32542373 Z M5.97966102,8.86779661 C5.61355932,8.86779661 5.10508475,7.89152542 5.06440678,6.32542373 L6.91525424,6.32542373 C6.85423729,7.89152542 6.34576271,8.86779661 5.97966102,8.86779661 Z M6.87457627,8.72542373 C7.2,8.13559322 7.38305085,7.22033898 7.42372881,6.32542373 L8.76610169,6.32542373 C8.68474576,7.4440678 7.91186441,8.37966102 6.87457627,8.72542373 Z M7.42372881,5.79661017 C7.38305085,4.90169492 7.2,3.98644068 6.87457627,3.39661017 C7.91186441,3.74237288 8.66440678,4.6779661 8.76610169,5.79661017 L7.42372881,5.79661017 Z"></path>
                                <path d="M8.86779661,11.2474576 L3.09152542,11.2474576 C2.94915254,11.2474576 2.84745763,11.3724576 2.84745763,11.4974576 C2.84745763,11.6224576 2.96949153,11.7474576 3.09152542,11.7474576 L8.86779661,11.7474576 C9.01016949,11.7474576 9.11186441,11.6224576 9.11186441,11.4974576 C9.11186441,11.3724576 9.01016949,11.2474576 8.86779661,11.2474576 Z"></path>
                                <path d="M7.85084746,12.6711864 L4.10847458,12.6711864 C3.96610169,12.6711864 3.86440678,12.7961864 3.86440678,12.9211864 C3.86440678,13.0461864 3.98644068,13.1711864 4.10847458,13.1711864 L7.85084746,13.1711864 C7.99322034,13.1711864 8.09491525,13.0461864 8.09491525,12.9211864 C8.09491525,12.7961864 7.99322034,12.6711864 7.85084746,12.6711864 Z"></path>
                            </g>
                        </g>
                    </g>
                </g>
            </g>
        </g>
    </g>
</svg>