<?xml version="1.0" encoding="UTF-8"?>
<svg width="26px" height="35px" viewBox="0 0 26 35" version="1.1" xmlns="http://www.w3.org/2000/svg" xmlns:xlink="http://www.w3.org/1999/xlink">
    <!-- Generator: Sketch 42 (36781) - http://www.bohemiancoding.com/sketch -->
    <title>Group 11</title>
    <desc>Created with Sketch.</desc>
    <defs></defs>
    <g id="Page-1" stroke="none" stroke-width="1" fill="none" fill-rule="evenodd">
        <g id="Dashboard-Select" transform="translate(-519.000000, -409.000000)" fill-rule="nonzero" fill="#CCCCCC">
            <g id="Group-2" transform="translate(32.000000, 397.000000)">
                <g id="Group-11" transform="translate(487.000000, 12.000000)">
                    <g id="noun_932471_cc">
                        <g id="Basic">
                            <path d="M13,34.9453125 C5.93397686,34.9453125 0.205833333,29.1620907 0.205833333,22.028125 C0.205833333,14.8941593 5.93397686,9.1109375 13,9.1109375 C20.0660231,9.1109375 25.7941667,14.8941593 25.7941667,22.028125 C25.7881933,29.1595911 20.0635474,34.9392817 13,34.9453125 Z M13,11.3804687 C7.17546696,11.3804687 2.45375,16.1475868 2.45375,22.028125 C2.45375,27.9086632 7.17546696,32.6757812 13,32.6757812 C18.824533,32.6757812 23.54625,27.9086632 23.54625,22.028125 C23.5402787,16.1500858 18.8220578,11.3864975 13,11.3804687 L13,11.3804687 Z" id="Shape"></path>
                            <ellipse id="Oval" cx="13" cy="22.028125" rx="2.41583333" ry="2.4390625"></ellipse>
                            <rect id="Rectangle-path" x="11.8733333" y="22.028125" width="2.24791667" height="6.7921875"></rect>
                            <path d="M20.4316667,12.1679688 L18.1783333,12.1679688 L18.1783333,6.015625 C18.1783333,3.98125 15.8383333,2.31875 12.9675,2.31875 C10.0966667,2.31875 7.76208333,3.959375 7.76208333,6.015625 L7.76208333,12.1679688 L5.51416667,12.1679688 L5.51416667,6.015625 C5.51416667,2.734375 8.85625,0.04921875 12.9729167,0.04921875 C17.0895833,0.04921875 20.4316667,2.734375 20.4316667,6.015625 L20.4316667,12.1679688 Z" id="Shape"></path>
                        </g>
                    </g>
                </g>
            </g>
        </g>
    </g>
</svg>